<svg width="24" height="24" viewBox="0 0 24 24" fill="none" xmlns="http://www.w3.org/2000/svg">
<path fill-rule="evenodd" clip-rule="evenodd" d="M12.3943 3.31297C12.1495 3.16234 11.8505 3.16234 11.6057 3.31297L5.10566 7.3121C4.86531 7.45997 4.7 7.74176 4.7 8.06584V15.9982C4.7 16.3247 4.86767 16.6079 5.11048 16.7549L11.6105 20.69C11.8528 20.8367 12.1472 20.8367 12.3895 20.69L18.8895 16.7549C19.1323 16.6079 19.3 16.3247 19.3 15.9982V8.06584C19.3 7.74176 19.1347 7.45997 18.8943 7.3121L12.3943 3.31297ZM10.989 21.7165L4.48902 17.7815C3.87641 17.4106 3.5 16.7319 3.5 15.9982V8.06584C3.5 7.33738 3.87112 6.66271 4.47684 6.29005L10.9768 2.29092C11.6073 1.90303 12.3927 1.90303 13.0232 2.29092L19.5232 6.29005C20.1289 6.66271 20.5 7.33738 20.5 8.06584V15.9982C20.5 16.7319 20.1236 17.4106 19.511 17.7815L13.011 21.7165C12.3866 22.0945 11.6134 22.0945 10.989 21.7165Z" fill="#203A52"/>
<path d="M11.8778 15.579C13.5828 15.579 14.6498 14.688 14.6498 13.434C14.6498 12.301 13.6488 11.729 12.9448 11.652C13.6928 11.531 14.5288 10.959 14.5288 9.969C14.5288 8.748 13.4728 8 11.8888 8C10.6678 8 9.77683 8.484 9.20483 9.155L9.86483 9.958C10.3928 9.419 11.0088 9.144 11.7678 9.144C12.5818 9.144 13.2528 9.496 13.2528 10.167C13.2528 10.838 12.6038 11.135 11.7348 11.135C11.4488 11.135 11.0198 11.135 10.8988 11.124V12.29C11.0088 12.279 11.4268 12.268 11.7348 12.268C12.7908 12.268 13.3628 12.587 13.3628 13.313C13.3628 13.984 12.8018 14.435 11.8338 14.435C11.0528 14.435 10.2828 14.094 9.80984 13.544L9.10583 14.391C9.61183 15.051 10.5798 15.579 11.8778 15.579Z" fill="#203A52"/>
</svg>
