<svg width="24" height="24" viewBox="0 0 24 24" fill="none" xmlns="http://www.w3.org/2000/svg">
<path fill-rule="evenodd" clip-rule="evenodd" d="M12.3943 3.31297C12.1495 3.16234 11.8505 3.16234 11.6057 3.31297L5.10566 7.3121C4.86531 7.45997 4.7 7.74176 4.7 8.06584V15.9982C4.7 16.3247 4.86767 16.6079 5.11048 16.7549L11.6105 20.69C11.8528 20.8367 12.1472 20.8367 12.3895 20.69L18.8895 16.7549C19.1323 16.6079 19.3 16.3247 19.3 15.9982V8.06584C19.3 7.74176 19.1347 7.45997 18.8943 7.3121L12.3943 3.31297ZM10.989 21.7165L4.48902 17.7815C3.87641 17.4106 3.5 16.7319 3.5 15.9982V8.06584C3.5 7.33738 3.87112 6.66271 4.47684 6.29005L10.9768 2.29092C11.6073 1.90303 12.3927 1.90303 13.0232 2.29092L19.5232 6.29005C20.1289 6.66271 20.5 7.33738 20.5 8.06584V15.9982C20.5 16.7319 20.1236 17.4106 19.511 17.7815L13.011 21.7165C12.3866 22.0945 11.6134 22.0945 10.989 21.7165Z" fill="#203A52"/>
<path d="M14.3564 15.27V14.24H11.4064C13.1864 12.89 14.3164 11.79 14.3164 10.55C14.3164 9.22 13.1964 8.5 11.9064 8.5C10.9664 8.5 10.0264 8.85 9.4364 9.57L10.1164 10.33C10.5464 9.85 11.1364 9.54 11.9164 9.54C12.5264 9.54 13.1364 9.85 13.1364 10.55C13.1364 11.52 12.1164 12.38 9.5264 14.34V15.27H14.3564Z" fill="#203A52"/>
</svg>
