<svg width="24" height="24" viewBox="0 0 24 24" fill="none" xmlns="http://www.w3.org/2000/svg">
<path d="M11.4494 16.5261C11.3619 16.3256 11.4536 16.0922 11.6541 16.0047L15.8551 14.1714C16.0556 14.0839 16.2891 14.1755 16.3766 14.376L18.338 18.8706C18.45 19.1275 18.2673 19.4163 17.9872 19.425L15.8367 19.4916C15.7351 19.4948 15.6385 19.5369 15.5671 19.6093L14.0558 21.1406C13.859 21.34 13.5229 21.2776 13.4108 21.0208L11.4494 16.5261Z" fill="#B8D7FF"/>
<path fill-rule="evenodd" clip-rule="evenodd" d="M11.4359 15.5047L15.6369 13.6715C16.1135 13.4635 16.6685 13.6812 16.8765 14.1579L18.8378 18.6525C19.1043 19.263 18.6698 19.9496 18.004 19.9702L15.9133 20.035L14.444 21.5237C13.9761 21.9978 13.1773 21.8495 12.9109 21.2389L10.9495 16.7443C10.7415 16.2677 10.9592 15.7127 11.4359 15.5047ZM11.654 16.0047C11.4535 16.0922 11.3619 16.3256 11.4494 16.5261L13.4108 21.0208C13.5229 21.2776 13.8589 21.34 14.0558 21.1406L15.567 19.6093C15.6385 19.5369 15.735 19.4948 15.8367 19.4916L17.9871 19.425C18.2672 19.4163 18.45 19.1275 18.3379 18.8706L16.3765 14.376C16.289 14.1755 16.0556 14.0839 15.855 14.1714L11.654 16.0047Z" fill="white"/>
<path d="M13.0943 16.5261C13.1818 16.3256 13.0901 16.0922 12.8896 16.0047L8.6886 14.1714C8.48809 14.0839 8.25462 14.1755 8.16712 14.376L6.20574 18.8706C6.09365 19.1275 6.27642 19.4163 6.55652 19.425L8.70695 19.4916C8.80862 19.4948 8.90517 19.5369 8.97662 19.6093L10.4879 21.1406C10.6847 21.34 11.0208 21.2776 11.1329 21.0208L13.0943 16.5261Z" fill="#B8D7FF"/>
<path fill-rule="evenodd" clip-rule="evenodd" d="M13.1078 15.5047L8.90681 13.6715C8.4302 13.4635 7.87523 13.6812 7.66725 14.1579L5.70586 18.6525C5.43944 19.263 5.87388 19.9496 6.53969 19.9702L8.63041 20.035L10.0997 21.5237C10.5676 21.9978 11.3664 21.8495 11.6329 21.2389L13.5942 16.7443C13.8022 16.2677 13.5845 15.7127 13.1078 15.5047ZM12.8897 16.0047C13.0902 16.0922 13.1818 16.3256 13.0943 16.5261L11.1329 21.0208C11.0208 21.2776 10.6848 21.34 10.4879 21.1406L8.97667 19.6093C8.90523 19.5369 8.80867 19.4948 8.707 19.4916L6.55658 19.425C6.27647 19.4163 6.0937 19.1275 6.20579 18.8706L8.16717 14.376C8.25467 14.1755 8.48815 14.0839 8.68865 14.1714L12.8897 16.0047Z" fill="white"/>
<path d="M11.4494 16.5261C11.3619 16.3256 11.4536 16.0922 11.6541 16.0047L15.8551 14.1714C16.0556 14.0839 16.2891 14.1755 16.3766 14.376L18.338 18.8706C18.45 19.1275 18.2673 19.4163 17.9872 19.425L15.8367 19.4916C15.7351 19.4948 15.6385 19.5369 15.5671 19.6093L14.0558 21.1406C13.859 21.34 13.5229 21.2776 13.4108 21.0208L11.4494 16.5261Z" fill="#B8D7FF"/>
<path fill-rule="evenodd" clip-rule="evenodd" d="M12.0091 16.4449L13.8225 20.6004L15.1789 19.2261C15.3487 19.0541 15.5782 18.9539 15.8199 18.9464L17.7498 18.8866L15.9364 14.731L12.0091 16.4449ZM17.9703 18.8798L17.9701 18.8798ZM11.6541 16.0047C11.4536 16.0922 11.3619 16.3256 11.4494 16.5261L13.4108 21.0208C13.5229 21.2776 13.859 21.34 14.0558 21.1406L15.5671 19.6093C15.6385 19.5369 15.7351 19.4948 15.8367 19.4916L17.9872 19.425C18.2673 19.4163 18.45 19.1275 18.338 18.8706L16.3766 14.376C16.2891 14.1755 16.0556 14.0839 15.8551 14.1714L11.6541 16.0047Z" fill="#1566DC"/>
<path d="M13.0943 16.5261C13.1818 16.3256 13.0901 16.0922 12.8896 16.0047L8.6886 14.1714C8.48809 14.0839 8.25462 14.1755 8.16712 14.376L6.20574 18.8706C6.09365 19.1275 6.27642 19.4163 6.55652 19.425L8.70695 19.4916C8.80862 19.4948 8.90517 19.5369 8.97662 19.6093L10.4879 21.1406C10.6847 21.34 11.0208 21.2776 11.1329 21.0208L13.0943 16.5261Z" fill="#B8D7FF"/>
<path fill-rule="evenodd" clip-rule="evenodd" d="M12.5346 16.4449L10.7212 20.6004L9.36484 19.2261C9.19501 19.0541 8.9655 18.9539 8.72384 18.9464L6.79389 18.8866L8.60732 14.731L12.5346 16.4449ZM6.57341 18.8798L6.57361 18.8798ZM12.8896 16.0047C13.0901 16.0922 13.1818 16.3256 13.0943 16.5261L11.1329 21.0208C11.0208 21.2776 10.6847 21.34 10.4879 21.1406L8.97662 19.6093C8.90517 19.5369 8.80862 19.4948 8.70695 19.4916L6.55652 19.425C6.27642 19.4163 6.09365 19.1275 6.20574 18.8706L8.16712 14.376C8.25462 14.1755 8.48809 14.0839 8.6886 14.1714L12.8896 16.0047Z" fill="#1566DC"/>
<path d="M11.4434 2.69088C11.7891 2.49698 12.2108 2.49698 12.5565 2.69088L13.5225 3.23281C13.6884 3.32582 13.8748 3.37579 14.065 3.37815L15.1726 3.39187C15.5689 3.39677 15.9341 3.60761 16.1365 3.94837L16.7021 4.90073C16.7992 5.06419 16.9358 5.20071 17.0992 5.29781L18.0516 5.86349C18.3923 6.0659 18.6032 6.43108 18.6081 6.82739L18.6218 7.935C18.6242 8.12511 18.6741 8.3116 18.7672 8.47742L19.3091 9.44349C19.503 9.78916 19.503 10.2108 19.3091 10.5565L18.7672 11.5226C18.6741 11.6884 18.6242 11.8749 18.6218 12.065L18.6081 13.1726C18.6032 13.5689 18.3923 13.9341 18.0516 14.1365L17.0992 14.7022C16.9358 14.7993 16.7992 14.9358 16.7021 15.0993L16.1365 16.0516C15.9341 16.3924 15.5689 16.6032 15.1726 16.6081L14.065 16.6219C13.8748 16.6242 13.6884 16.6742 13.5225 16.7672L12.5565 17.3091C12.2108 17.503 11.7891 17.503 11.4434 17.3091L10.4774 16.7672C10.3116 16.6742 10.1251 16.6242 9.93495 16.6219L8.82735 16.6081C8.43104 16.6032 8.06585 16.3924 7.86345 16.0516L7.29776 15.0993C7.20067 14.9358 7.06415 14.7993 6.90068 14.7022L5.94833 14.1365C5.60757 13.9341 5.39673 13.5689 5.39182 13.1726L5.3781 12.065C5.37575 11.8749 5.32578 11.6884 5.23276 11.5226L4.69084 10.5565C4.49693 10.2108 4.49693 9.78916 4.69084 9.44349L5.23276 8.47742C5.32578 8.3116 5.37575 8.12511 5.3781 7.935L5.39182 6.82739C5.39673 6.43108 5.60757 6.0659 5.94833 5.86349L6.90068 5.29781C7.06415 5.20071 7.20067 5.06419 7.29776 4.90073L7.86345 3.94837C8.06585 3.60761 8.43104 3.39677 8.82735 3.39187L9.93495 3.37815C10.1251 3.37579 10.3116 3.32582 10.4774 3.23281L11.4434 2.69088Z" fill="#DEECFF"/>
<path fill-rule="evenodd" clip-rule="evenodd" d="M12.8234 2.21516L13.7894 2.75709C13.8757 2.8055 13.9728 2.83151 14.0718 2.83273L15.1794 2.84645C15.7657 2.85371 16.306 3.16565 16.6055 3.66982L17.1712 4.62217C17.2217 4.70725 17.2927 4.77831 17.3778 4.82884L18.3302 5.39453C18.8343 5.69399 19.1463 6.23429 19.1535 6.82064L19.1673 7.92824C19.1685 8.02719 19.1945 8.12426 19.2429 8.21056L19.7848 9.17664C20.0717 9.68806 20.0717 10.3119 19.7848 10.8234L19.2429 11.7894C19.1945 11.8757 19.1685 11.9728 19.1673 12.0718L19.1535 13.1794C19.1463 13.7657 18.8343 14.306 18.3302 14.6055L17.3778 15.1712C17.2927 15.2217 17.2217 15.2927 17.1712 15.3778L16.6055 16.3302C16.306 16.8343 15.7657 17.1463 15.1794 17.1535L14.0718 17.1673C13.9728 17.1685 13.8757 17.1945 13.7894 17.2429L12.8234 17.7848C12.3119 18.0717 11.6881 18.0717 11.1766 17.7848L10.2106 17.2429C10.1243 17.1945 10.0272 17.1685 9.92824 17.1673L8.82064 17.1535C8.23429 17.1463 7.69399 16.8343 7.39453 16.3302L6.82884 15.3778C6.77831 15.2927 6.70725 15.2217 6.62217 15.1712L5.66982 14.6055C5.16565 14.306 4.85371 13.7657 4.84645 13.1794L4.83273 12.0718C4.83151 11.9728 4.8055 11.8757 4.75709 11.7894L4.21516 10.8234C3.92828 10.3119 3.92828 9.68806 4.21516 9.17664L4.75709 8.21056C4.8055 8.12426 4.83151 8.02719 4.83273 7.92824L4.84645 6.82064C4.85371 6.23429 5.16565 5.69399 5.66982 5.39453L6.62217 4.82884C6.70725 4.77831 6.77831 4.70725 6.82884 4.62217L7.39453 3.66982C7.69399 3.16565 8.23429 2.85371 8.82064 2.84645L9.92824 2.83273C10.0272 2.83151 10.1243 2.8055 10.2106 2.75709L11.1766 2.21516C11.6881 1.92828 12.3119 1.92828 12.8234 2.21516ZM12.5565 2.69088C12.2108 2.49698 11.7892 2.49698 11.4435 2.69088L10.4774 3.2328C10.3116 3.32582 10.1251 3.37579 9.935 3.37815L8.82739 3.39186C8.43108 3.39677 8.0659 3.60761 7.86349 3.94837L7.29781 4.90073C7.20071 5.06419 7.06419 5.20071 6.90073 5.29781L5.94837 5.86349C5.60761 6.0659 5.39677 6.43108 5.39186 6.82739L5.37815 7.935C5.37579 8.12511 5.32582 8.3116 5.2328 8.47742L4.69088 9.44349C4.49698 9.78916 4.49698 10.2108 4.69088 10.5565L5.2328 11.5226C5.32582 11.6884 5.37579 11.8749 5.37815 12.065L5.39186 13.1726C5.39677 13.5689 5.60761 13.9341 5.94837 14.1365L6.90073 14.7022C7.06419 14.7993 7.20071 14.9358 7.29781 15.0993L7.86349 16.0516C8.0659 16.3924 8.43108 16.6032 8.82739 16.6081L9.935 16.6219C10.1251 16.6242 10.3116 16.6742 10.4774 16.7672L11.4435 17.3091C11.7892 17.503 12.2108 17.503 12.5565 17.3091L13.5226 16.7672C13.6884 16.6742 13.8749 16.6242 14.065 16.6219L15.1726 16.6081C15.5689 16.6032 15.9341 16.3924 16.1365 16.0516L16.7022 15.0993C16.7993 14.9358 16.9358 14.7993 17.0993 14.7022L18.0516 14.1365C18.3924 13.9341 18.6032 13.5689 18.6081 13.1726L18.6219 12.065C18.6242 11.8749 18.6742 11.6884 18.7672 11.5226L19.3091 10.5565C19.503 10.2108 19.503 9.78916 19.3091 9.44349L18.7672 8.47742C18.6742 8.3116 18.6242 8.12511 18.6219 7.935L18.6081 6.82739C18.6032 6.43108 18.3924 6.0659 18.0516 5.86349L17.0993 5.29781C16.9358 5.20071 16.7993 5.06419 16.7022 4.90073L16.1365 3.94837C15.9341 3.60761 15.5689 3.39677 15.1726 3.39186L14.065 3.37815C13.8749 3.37579 13.6884 3.32582 13.5226 3.2328L12.5565 2.69088Z" fill="white"/>
<path d="M11.4434 2.69088C11.7891 2.49698 12.2108 2.49698 12.5565 2.69088L13.5225 3.23281C13.6884 3.32582 13.8748 3.37579 14.065 3.37815L15.1726 3.39187C15.5689 3.39677 15.9341 3.60761 16.1365 3.94837L16.7021 4.90073C16.7992 5.06419 16.9358 5.20071 17.0992 5.29781L18.0516 5.86349C18.3923 6.0659 18.6032 6.43108 18.6081 6.82739L18.6218 7.935C18.6242 8.12511 18.6741 8.3116 18.7672 8.47742L19.3091 9.44349C19.503 9.78916 19.503 10.2108 19.3091 10.5565L18.7672 11.5226C18.6741 11.6884 18.6242 11.8749 18.6218 12.065L18.6081 13.1726C18.6032 13.5689 18.3923 13.9341 18.0516 14.1365L17.0992 14.7022C16.9358 14.7993 16.7992 14.9358 16.7021 15.0993L16.1365 16.0516C15.9341 16.3924 15.5689 16.6032 15.1726 16.6081L14.065 16.6219C13.8748 16.6242 13.6884 16.6742 13.5225 16.7672L12.5565 17.3091C12.2108 17.503 11.7891 17.503 11.4434 17.3091L10.4774 16.7672C10.3116 16.6742 10.1251 16.6242 9.93495 16.6219L8.82735 16.6081C8.43104 16.6032 8.06585 16.3924 7.86345 16.0516L7.29776 15.0993C7.20067 14.9358 7.06415 14.7993 6.90068 14.7022L5.94833 14.1365C5.60757 13.9341 5.39673 13.5689 5.39182 13.1726L5.3781 12.065C5.37575 11.8749 5.32578 11.6884 5.23276 11.5226L4.69084 10.5565C4.49693 10.2108 4.49693 9.78916 4.69084 9.44349L5.23276 8.47742C5.32578 8.3116 5.37575 8.12511 5.3781 7.935L5.39182 6.82739C5.39673 6.43108 5.60757 6.0659 5.94833 5.86349L6.90068 5.29781C7.06415 5.20071 7.20067 5.06419 7.29776 4.90073L7.86345 3.94837C8.06585 3.60761 8.43104 3.39677 8.82735 3.39187L9.93495 3.37815C10.1251 3.37579 10.3116 3.32582 10.4774 3.23281L11.4434 2.69088Z" fill="#DEECFF"/>
<path fill-rule="evenodd" clip-rule="evenodd" d="M13.2557 3.70852L12.2896 3.1666C12.1097 3.06568 11.8902 3.06568 11.7103 3.1666L10.7442 3.70852C10.4989 3.84614 10.223 3.92008 9.94171 3.92356L8.8341 3.93728C8.62783 3.93983 8.43776 4.04957 8.33241 4.22693L7.76673 5.17929C7.62307 5.42113 7.42109 5.62312 7.17924 5.76677L6.22689 6.33245C6.04953 6.4378 5.93979 6.62788 5.93723 6.83415L5.92351 7.94175C5.92003 8.22303 5.8461 8.49894 5.70848 8.74428L5.16656 9.71035C5.06563 9.89026 5.06563 10.1097 5.16656 10.2897L5.70848 11.2557C5.8461 11.5011 5.92003 11.777 5.92351 12.0582L5.93723 13.1659C5.93979 13.3721 6.04953 13.5622 6.22689 13.6675L7.17924 14.2332C7.42109 14.3769 7.62307 14.5789 7.76673 14.8207L8.33241 15.7731C8.43776 15.9504 8.62783 16.0602 8.8341 16.0627L9.94171 16.0764C10.223 16.0799 10.4989 16.1539 10.7442 16.2915L11.7103 16.8334C11.8902 16.9343 12.1097 16.9343 12.2896 16.8334L13.2557 16.2915C13.501 16.1539 13.7769 16.0799 14.0582 16.0764L15.1658 16.0627C15.3721 16.0602 15.5622 15.9504 15.6675 15.7731L16.2332 14.8207C16.3768 14.5789 16.5788 14.3769 16.8207 14.2332L17.773 13.6675C17.9504 13.5622 18.0601 13.3721 18.0627 13.1659L18.0764 12.0582C18.0799 11.777 18.1538 11.5011 18.2914 11.2557L18.8334 10.2897C18.9343 10.1097 18.9343 9.89026 18.8334 9.71035L18.2914 8.74427C18.1538 8.49894 18.0799 8.22303 18.0764 7.94175L18.0627 6.83415C18.0601 6.62787 17.9504 6.4378 17.773 6.33246L16.8207 5.76677C16.5788 5.62312 16.3768 5.42113 16.2332 5.17929L15.6675 4.22693C15.5622 4.04957 15.3721 3.93983 15.1658 3.93728L14.0582 3.92356C13.7769 3.92008 13.501 3.84614 13.2557 3.70852ZM12.5565 2.69088C12.2108 2.49698 11.7891 2.49698 11.4434 2.69088L10.4774 3.23281C10.3116 3.32582 10.1251 3.37579 9.93495 3.37815L8.82735 3.39187C8.43104 3.39677 8.06585 3.60761 7.86345 3.94837L7.29776 4.90073C7.20067 5.06419 7.06415 5.20071 6.90068 5.29781L5.94833 5.86349C5.60757 6.0659 5.39673 6.43108 5.39182 6.82739L5.3781 7.935C5.37575 8.12511 5.32578 8.3116 5.23276 8.47742L4.69084 9.44349C4.49693 9.78916 4.49693 10.2108 4.69084 10.5565L5.23276 11.5226C5.32578 11.6884 5.37575 11.8749 5.3781 12.065L5.39182 13.1726C5.39673 13.5689 5.60757 13.9341 5.94833 14.1365L6.90068 14.7022C7.06415 14.7993 7.20067 14.9358 7.29776 15.0993L7.86345 16.0516C8.06585 16.3924 8.43104 16.6032 8.82735 16.6081L9.93495 16.6219C10.1251 16.6242 10.3116 16.6742 10.4774 16.7672L11.4434 17.3091C11.7891 17.503 12.2108 17.503 12.5565 17.3091L13.5225 16.7672C13.6884 16.6742 13.8748 16.6242 14.065 16.6219L15.1726 16.6081C15.5689 16.6032 15.9341 16.3924 16.1365 16.0516L16.7021 15.0993C16.7992 14.9358 16.9358 14.7993 17.0992 14.7022L18.0516 14.1365C18.3923 13.9341 18.6032 13.5689 18.6081 13.1726L18.6218 12.065C18.6242 11.8749 18.6741 11.6884 18.7672 11.5226L19.3091 10.5565C19.503 10.2108 19.503 9.78916 19.3091 9.44349L18.7672 8.47742C18.6741 8.3116 18.6242 8.12511 18.6218 7.935L18.6081 6.82739C18.6032 6.43108 18.3923 6.0659 18.0516 5.86349L17.0992 5.29781C16.9358 5.20071 16.7992 5.06419 16.7021 4.90073L16.1365 3.94837C15.9341 3.60761 15.5689 3.39677 15.1726 3.39187L14.065 3.37815C13.8748 3.37579 13.6884 3.32582 13.5225 3.23281L12.5565 2.69088Z" fill="#1566DC"/>
<path d="M17.2726 10C17.2726 12.912 14.9119 15.2727 11.9999 15.2727C9.08785 15.2727 6.72717 12.912 6.72717 10C6.72717 7.08795 9.08785 4.72727 11.9999 4.72727C14.9119 4.72727 17.2726 7.08795 17.2726 10Z" fill="white"/>
<path fill-rule="evenodd" clip-rule="evenodd" d="M11.9999 14.7273C14.6107 14.7273 16.7272 12.6108 16.7272 10C16.7272 7.3892 14.6107 5.27273 11.9999 5.27273C9.3891 5.27273 7.27263 7.3892 7.27263 10C7.27263 12.6108 9.3891 14.7273 11.9999 14.7273ZM11.9999 15.2727C14.9119 15.2727 17.2726 12.912 17.2726 10C17.2726 7.08795 14.9119 4.72727 11.9999 4.72727C9.08785 4.72727 6.72717 7.08795 6.72717 10C6.72717 12.912 9.08785 15.2727 11.9999 15.2727Z" fill="#AFCDF9"/>
<path d="M14.9207 8.94941L11.8676 12.0025C11.7614 12.1087 11.5893 12.109 11.4827 12.0032L9.79414 10.3278C9.68692 10.2215 9.68658 10.0482 9.79338 9.9414L10.1043 9.63052C10.2108 9.52401 10.3834 9.52401 10.49 9.63052L11.6756 10.8161L14.2234 8.25321C14.3298 8.14617 14.5029 8.14592 14.6096 8.25265L14.9207 8.56371C15.0272 8.67022 15.0272 8.8429 14.9207 8.94941Z" fill="#1566DC"/>
</svg>
