<svg width="24" height="24" viewBox="0 0 24 24" fill="none" xmlns="http://www.w3.org/2000/svg">
<path fill-rule="evenodd" clip-rule="evenodd" d="M15.375 8.625C16.2034 8.625 16.875 9.29657 16.875 10.125V16.5C16.875 17.3284 16.2034 18 15.375 18H8.25L5.94508 20.3049C5.82696 20.423 5.625 20.3394 5.625 20.1723V18H5.25C4.42157 18 3.75 17.3284 3.75 16.5V10.125C3.75 9.29657 4.42157 8.625 5.25 8.625H15.375Z" fill="#DEECFF"/>
<path fill-rule="evenodd" clip-rule="evenodd" d="M15.375 8.90625C16.0481 8.90625 16.5938 9.4519 16.5938 10.125V16.5C16.5938 17.1731 16.0481 17.7187 15.375 17.7187H8.1335L5.90625 19.946V17.7187H5.25C4.5769 17.7187 4.03125 17.1731 4.03125 16.5V10.125C4.03125 9.4519 4.5769 8.90625 5.25 8.90625H15.375ZM17.1562 10.125C17.1562 9.14124 16.3588 8.34375 15.375 8.34375H5.25C4.26624 8.34375 3.46875 9.14124 3.46875 10.125V16.5C3.46875 17.4838 4.26624 18.2812 5.25 18.2812H5.34375V20.1723C5.34375 20.5899 5.84866 20.7991 6.14396 20.5038L8.3665 18.2812H15.375C16.3588 18.2812 17.1562 17.4838 17.1562 16.5V10.125Z" fill="#AFCDF9"/>
<path fill-rule="evenodd" clip-rule="evenodd" d="M8.25 5.625C7.42157 5.625 6.75 6.29657 6.75 7.125V13.5C6.75 14.3284 7.42157 15 8.25 15H15.375L17.6799 17.3049C17.798 17.423 18 17.3394 18 17.1723V15H18.375C19.2034 15 19.875 14.3284 19.875 13.5V7.125C19.875 6.29657 19.2034 5.625 18.375 5.625H8.25Z" fill="white"/>
<path fill-rule="evenodd" clip-rule="evenodd" d="M15.375 15H8.25C7.42157 15 6.75 14.3284 6.75 13.5V7.125C6.75 6.29657 7.42157 5.625 8.25 5.625H18.375C19.2034 5.625 19.875 6.29657 19.875 7.125V13.5C19.875 14.3284 19.2034 15 18.375 15H18V17.1723C18 17.3394 17.798 17.423 17.6799 17.3049L15.375 15ZM18.9375 15.8723C20.0125 15.6183 20.8125 14.6526 20.8125 13.5V7.125C20.8125 5.77881 19.7212 4.6875 18.375 4.6875H8.25C6.90381 4.6875 5.8125 5.77881 5.8125 7.125V13.5C5.8125 14.8462 6.90381 15.9375 8.25 15.9375H14.9867L17.017 17.9678C17.7257 18.6765 18.9375 18.1746 18.9375 17.1723V15.8723Z" fill="white"/>
<path fill-rule="evenodd" clip-rule="evenodd" d="M8.25 5.625C7.42157 5.625 6.75 6.29657 6.75 7.125V13.5C6.75 14.3284 7.42157 15 8.25 15H15.375L17.6799 17.3049C17.798 17.423 18 17.3394 18 17.1723V15H18.375C19.2034 15 19.875 14.3284 19.875 13.5V7.125C19.875 6.29657 19.2034 5.625 18.375 5.625H8.25Z" fill="white"/>
<path fill-rule="evenodd" clip-rule="evenodd" d="M8.25 5.90625C7.5769 5.90625 7.03125 6.4519 7.03125 7.125V13.5C7.03125 14.1731 7.5769 14.7187 8.25 14.7187H15.4915L17.7188 16.946V14.7187H18.375C19.0481 14.7187 19.5938 14.1731 19.5938 13.5V7.125C19.5938 6.4519 19.0481 5.90625 18.375 5.90625H8.25ZM6.46875 7.125C6.46875 6.14124 7.26624 5.34375 8.25 5.34375H18.375C19.3588 5.34375 20.1562 6.14124 20.1562 7.125V13.5C20.1562 14.4838 19.3588 15.2812 18.375 15.2812H18.2812V17.1723C18.2812 17.5899 17.7763 17.7991 17.481 17.5038L15.2585 15.2812H8.25C7.26624 15.2812 6.46875 14.4838 6.46875 13.5V7.125Z" fill="#1566DC"/>
<path fill-rule="evenodd" clip-rule="evenodd" d="M10.6875 10.6875C10.8946 10.6875 11.0625 10.5196 11.0625 10.3125C11.0625 10.1054 10.8946 9.9375 10.6875 9.9375C10.4804 9.9375 10.3125 10.1054 10.3125 10.3125C10.3125 10.5196 10.4804 10.6875 10.6875 10.6875ZM10.6875 11.25C11.2053 11.25 11.625 10.8303 11.625 10.3125C11.625 9.79473 11.2053 9.375 10.6875 9.375C10.1697 9.375 9.75 9.79473 9.75 10.3125C9.75 10.8303 10.1697 11.25 10.6875 11.25Z" fill="#1566DC"/>
<path fill-rule="evenodd" clip-rule="evenodd" d="M13.3125 10.6875C13.5196 10.6875 13.6875 10.5196 13.6875 10.3125C13.6875 10.1054 13.5196 9.9375 13.3125 9.9375C13.1054 9.9375 12.9375 10.1054 12.9375 10.3125C12.9375 10.5196 13.1054 10.6875 13.3125 10.6875ZM13.3125 11.25C13.8303 11.25 14.25 10.8303 14.25 10.3125C14.25 9.79473 13.8303 9.375 13.3125 9.375C12.7947 9.375 12.375 9.79473 12.375 10.3125C12.375 10.8303 12.7947 11.25 13.3125 11.25Z" fill="#1566DC"/>
<path fill-rule="evenodd" clip-rule="evenodd" d="M15.9375 10.6875C16.1446 10.6875 16.3125 10.5196 16.3125 10.3125C16.3125 10.1054 16.1446 9.9375 15.9375 9.9375C15.7304 9.9375 15.5625 10.1054 15.5625 10.3125C15.5625 10.5196 15.7304 10.6875 15.9375 10.6875ZM15.9375 11.25C16.4553 11.25 16.875 10.8303 16.875 10.3125C16.875 9.79473 16.4553 9.375 15.9375 9.375C15.4197 9.375 15 9.79473 15 10.3125C15 10.8303 15.4197 11.25 15.9375 11.25Z" fill="#1566DC"/>
</svg>
