<svg width="24" height="24" viewBox="0 0 24 24" fill="none" xmlns="http://www.w3.org/2000/svg">
<path fill-rule="evenodd" clip-rule="evenodd" d="M14.62 5.28028C15.6866 5.45675 16.5 6.38338 16.5 7.5V8.25C16.5 8.87132 15.9963 9.375 15.375 9.375H9C8.37868 9.375 7.875 8.87132 7.875 8.25V7.5C7.875 6.38338 8.68839 5.45675 9.75499 5.28028C9.83602 4.00735 10.8941 3 12.1875 3C13.4809 3 14.539 4.00735 14.62 5.28028ZM13.8719 5.53982C13.8582 5.76929 14.0201 6 14.25 6C15.0784 6 15.75 6.67157 15.75 7.5V8.25C15.75 8.45711 15.5821 8.625 15.375 8.625H9C8.79289 8.625 8.625 8.45711 8.625 8.25V7.5C8.625 6.67157 9.29657 6 10.125 6C10.3549 6 10.5168 5.76929 10.5031 5.53982C10.501 5.50597 10.5 5.47186 10.5 5.4375C10.5 4.50552 11.2555 3.75 12.1875 3.75C13.1195 3.75 13.875 4.50552 13.875 5.4375C13.875 5.47186 13.874 5.50597 13.8719 5.53982Z" fill="white"/>
<path fill-rule="evenodd" clip-rule="evenodd" d="M6.75 6.375H17.25C18.2855 6.375 19.125 7.21447 19.125 8.25V19.5C19.125 20.5355 18.2855 21.375 17.25 21.375H6.75C5.71447 21.375 4.875 20.5355 4.875 19.5V8.25C4.875 7.21447 5.71447 6.375 6.75 6.375ZM6.75 7.125C6.12868 7.125 5.625 7.62868 5.625 8.25V19.5C5.625 20.1213 6.12868 20.625 6.75 20.625H17.25C17.8713 20.625 18.375 20.1213 18.375 19.5V8.25C18.375 7.62868 17.8713 7.125 17.25 7.125H6.75Z" fill="white"/>
<path d="M5.625 8.25C5.625 7.62868 6.12868 7.125 6.75 7.125H17.25C17.8713 7.125 18.375 7.62868 18.375 8.25V9.375V15.1875V19.5C18.375 20.1213 17.8713 20.625 17.25 20.625H6.75C6.12868 20.625 5.625 20.1213 5.625 19.5V8.25Z" fill="white"/>
<path fill-rule="evenodd" clip-rule="evenodd" d="M17.25 7.6875H6.75C6.43934 7.6875 6.1875 7.93934 6.1875 8.25V19.5C6.1875 19.8107 6.43934 20.0625 6.75 20.0625H17.25C17.5607 20.0625 17.8125 19.8107 17.8125 19.5V8.25C17.8125 7.93934 17.5607 7.6875 17.25 7.6875ZM6.75 7.125C6.12868 7.125 5.625 7.62868 5.625 8.25V19.5C5.625 20.1213 6.12868 20.625 6.75 20.625H17.25C17.8713 20.625 18.375 20.1213 18.375 19.5V8.25C18.375 7.62868 17.8713 7.125 17.25 7.125H6.75Z" fill="#1566DC"/>
<path fill-rule="evenodd" clip-rule="evenodd" d="M14.25 6C14.0201 6 13.8582 5.76929 13.8719 5.53982C13.874 5.50597 13.875 5.47186 13.875 5.4375C13.875 4.50552 13.1195 3.75 12.1875 3.75C11.2555 3.75 10.5 4.50552 10.5 5.4375C10.5 5.47186 10.501 5.50597 10.5031 5.53982C10.5168 5.76929 10.3549 6 10.125 6C9.29657 6 8.625 6.67157 8.625 7.5V8.25C8.625 8.45711 8.79289 8.625 9 8.625H15.375C15.5821 8.625 15.75 8.45711 15.75 8.25V7.5C15.75 6.67157 15.0784 6 14.25 6Z" fill="#DEECFF"/>
<path fill-rule="evenodd" clip-rule="evenodd" d="M13.3105 5.50624C13.3118 5.48356 13.3125 5.46065 13.3125 5.4375C13.3125 4.81618 12.8088 4.3125 12.1875 4.3125C11.5662 4.3125 11.0625 4.81618 11.0625 5.4375C11.0625 5.46065 11.0632 5.48356 11.0645 5.50624C11.0913 5.95415 10.775 6.5625 10.125 6.5625C9.60723 6.5625 9.1875 6.98223 9.1875 7.5V8.0625H15.1875V7.5C15.1875 6.98223 14.7678 6.5625 14.25 6.5625C13.6 6.5625 13.2837 5.95415 13.3105 5.50624ZM13.8719 5.53982C13.8582 5.76929 14.0201 6 14.25 6C15.0784 6 15.75 6.67157 15.75 7.5V8.25C15.75 8.45711 15.5821 8.625 15.375 8.625H9C8.79289 8.625 8.625 8.45711 8.625 8.25V7.5C8.625 6.67157 9.29657 6 10.125 6C10.3549 6 10.5168 5.76929 10.5031 5.53982C10.501 5.50597 10.5 5.47186 10.5 5.4375C10.5 4.50552 11.2555 3.75 12.1875 3.75C13.1195 3.75 13.875 4.50552 13.875 5.4375C13.875 5.47186 13.874 5.50597 13.8719 5.53982Z" fill="#1566DC"/>
<path d="M12.75 5.4375C12.75 5.74816 12.4982 6 12.1875 6C11.8768 6 11.625 5.74816 11.625 5.4375C11.625 5.12684 11.8768 4.875 12.1875 4.875C12.4982 4.875 12.75 5.12684 12.75 5.4375Z" fill="#1566DC"/>
<path d="M12.5425 16.6728C12.5494 16.5835 12.5879 16.4997 12.6512 16.4364L19.4474 9.64016C19.5939 9.49372 19.8313 9.49372 19.9778 9.64016L21.0384 10.7008C21.1849 10.8473 21.1849 11.0847 21.0384 11.2312L14.2422 18.0274C14.1789 18.0907 14.0951 18.1292 14.0058 18.1361L12.8568 18.2245C12.6275 18.2421 12.4365 18.0511 12.4541 17.8218L12.5425 16.6728Z" fill="white"/>
<path fill-rule="evenodd" clip-rule="evenodd" d="M12.1209 15.906L18.9171 9.10983C19.3564 8.67049 20.0687 8.67049 20.5081 9.10983L21.5687 10.1705C22.0081 10.6098 22.0081 11.3221 21.5687 11.7615L14.7725 18.5577C14.5827 18.7476 14.3311 18.8633 14.0633 18.8839L12.9143 18.9723C12.2264 19.0252 11.6534 18.4522 11.7063 17.7643L11.7947 16.6152C11.8153 16.3475 11.931 16.0959 12.1209 15.906ZM12.6512 16.4364C12.5879 16.4997 12.5494 16.5835 12.5425 16.6728L12.4541 17.8218C12.4365 18.0511 12.6275 18.2421 12.8568 18.2245L14.0058 18.1361C14.0951 18.1292 14.1789 18.0907 14.2422 18.0274L21.0384 11.2312C21.1849 11.0847 21.1849 10.8473 21.0384 10.7008L19.9778 9.64016C19.8313 9.49371 19.5939 9.49371 19.4474 9.64016L12.6512 16.4364Z" fill="white"/>
<path d="M12.5425 16.6728C12.5494 16.5835 12.5879 16.4997 12.6512 16.4364L19.4474 9.64016C19.5939 9.49372 19.8313 9.49372 19.9778 9.64016L21.0384 10.7008C21.1849 10.8473 21.1849 11.0847 21.0384 11.2312L14.2422 18.0274C14.1789 18.0907 14.0951 18.1292 14.0058 18.1361L12.8568 18.2245C12.6275 18.2421 12.4365 18.0511 12.4541 17.8218L12.5425 16.6728Z" fill="#B8D7FF"/>
<path fill-rule="evenodd" clip-rule="evenodd" d="M13.098 16.7851L13.0317 17.6469L13.8935 17.5806L20.5081 10.966L19.7126 10.1705L13.098 16.7851ZM12.6512 16.4364C12.5879 16.4997 12.5494 16.5835 12.5425 16.6728L12.4541 17.8218C12.4365 18.0511 12.6275 18.2421 12.8568 18.2245L14.0058 18.1361C14.0951 18.1292 14.1789 18.0907 14.2422 18.0274L21.0384 11.2312C21.1849 11.0847 21.1849 10.8473 21.0384 10.7008L19.9778 9.64016C19.8313 9.49372 19.5939 9.49372 19.4474 9.64016L12.6512 16.4364Z" fill="#1566DC"/>
<path fill-rule="evenodd" clip-rule="evenodd" d="M14.4093 17.33L13.3486 16.2693L13.7463 15.8716L14.807 16.9322L14.4093 17.33Z" fill="#1566DC"/>
<path fill-rule="evenodd" clip-rule="evenodd" d="M19.9778 12.2918L18.6519 10.966L19.0497 10.5683L20.3755 11.8941L19.9778 12.2918Z" fill="#1566DC"/>
<path fill-rule="evenodd" clip-rule="evenodd" d="M19.1822 13.0873L17.8564 11.7615L18.2542 11.3638L19.58 12.6896L19.1822 13.0873Z" fill="#1566DC"/>
<path fill-rule="evenodd" clip-rule="evenodd" d="M8.25 11.3438C8.25 11.1884 8.37592 11.0625 8.53125 11.0625H15.4688C15.6241 11.0625 15.75 11.1884 15.75 11.3438C15.75 11.4991 15.6241 11.625 15.4688 11.625H8.53125C8.37592 11.625 8.25 11.4991 8.25 11.3438Z" fill="#B8D7FF"/>
<path fill-rule="evenodd" clip-rule="evenodd" d="M8.25 13.2188C8.25 13.0634 8.37592 12.9375 8.53125 12.9375H14.3438C14.4991 12.9375 14.625 13.0634 14.625 13.2188C14.625 13.3741 14.4991 13.5 14.3438 13.5H8.53125C8.37592 13.5 8.25 13.3741 8.25 13.2188Z" fill="#B8D7FF"/>
<path fill-rule="evenodd" clip-rule="evenodd" d="M8.25 15.0938C8.25 14.9384 8.37592 14.8125 8.53125 14.8125H12.0938C12.2491 14.8125 12.375 14.9384 12.375 15.0938C12.375 15.2491 12.2491 15.375 12.0938 15.375H8.53125C8.37592 15.375 8.25 15.2491 8.25 15.0938Z" fill="#B8D7FF"/>
<path fill-rule="evenodd" clip-rule="evenodd" d="M8.25 16.9688C8.25 16.8134 8.37592 16.6875 8.53125 16.6875H11.3438C11.4991 16.6875 11.625 16.8134 11.625 16.9688C11.625 17.1241 11.4991 17.25 11.3438 17.25H8.53125C8.37592 17.25 8.25 17.1241 8.25 16.9688Z" fill="#B8D7FF"/>
</svg>
