<?xml version="1.0" encoding="UTF-8"?>
<svg width="22px" height="22px" viewBox="0 0 22 22" version="1.1" xmlns="http://www.w3.org/2000/svg" xmlns:xlink="http://www.w3.org/1999/xlink">
    <g stroke="none" stroke-width="1" fill="none" fill-rule="evenodd">
        <path d="M10.546621,0.445688449 L21.6893493,10.5036834 C22.4046724,11.2179963 21.7564752,13.0246044 21.036277,13.7431573 L14.0720485,21.4647329 C13.3518503,22.1784224 12.189708,22.1784224 11.4743848,21.4647329 L1.35460933,11.9961584 C0.78816341,11.4664096 0.114340888,10.4635282 0.0655276625,9.6914143 C-0.0639117625,7.60222357 0.0276520993,3.60167211 0.0911530436,1.48142972 C0.114340888,0.707507581 0.764975565,0.0596003155 1.54136211,0.042578019 L3.20220687,0.0119761444 C6.1116709,-0.0263856644 10.1054973,0.00509623135 10.546621,0.445688449 Z M8.57010027,4.4249182 C7.39518471,3.2551122 5.49811767,3.2551122 4.32549733,4.4249182 C3.15529303,5.60052609 3.15529303,7.49629353 4.32549733,8.66839611 C5.5005337,9.84061956 7.39747994,9.84061956 8.57010027,8.66839611 C9.74042538,7.49629353 9.74042538,5.59943823 8.57010027,4.4249182 Z M5.49907586,5.38386369 C6.08953392,4.90325442 6.95910796,4.93764458 7.51175398,5.48788721 C8.09442883,6.07266734 8.09442883,7.02185812 7.50863556,7.60854109 C6.92256279,8.19441459 5.9742455,8.19441459 5.38488567,7.60646562 C4.83767069,7.05835895 4.80346976,6.19040213 5.28534166,5.59780412 L5.28534166,5.59780412 L5.3848824,5.48685195 Z M7.14033752,1.52745144 L6.82787297,1.5195085 C5.46175852,1.48840185 3.84811886,1.49583647 2.19542531,1.52871926 L1.59,1.542 L1.55364936,2.8710082 C1.48736253,5.55597399 1.47509708,7.91787691 1.54992519,9.37343087 L1.56253902,9.59677288 C1.57723266,9.82919274 1.90870858,10.4066301 2.27033623,10.7916473 L2.37944244,10.9008424 L12.5338317,20.4028609 C12.6456163,20.5143901 12.8210421,20.5303229 12.9172998,20.4867086 L12.9581702,20.460106 L19.9768305,12.6812849 C20.1398195,12.5186683 20.3517037,12.1232153 20.4486518,11.7472685 C20.4659705,11.6801101 20.4786277,11.6176964 20.4870659,11.5619036 L20.498,11.449 L9.721,1.722 L9.68870754,1.7150583 C9.62064438,1.70222271 9.54037099,1.68940269 9.44890345,1.67688012 L9.14193446,1.64048657 L8.72958662,1.6039365 C8.28645075,1.57016238 7.75238835,1.54470395 7.14033752,1.52745144 Z" fill="#fed200" fill-rule="nonzero" transform="translate(11.000000, 11.000000) scale(-1, 1) translate(-11.000000, -11.000000) "></path>
    </g>
</svg>