<?xml version="1.0" encoding="UTF-8"?>
<svg width="51px" height="32px" viewBox="0 0 51 32" version="1.1" xmlns="http://www.w3.org/2000/svg" xmlns:xlink="http://www.w3.org/1999/xlink">
  <g stroke="none" stroke-width="1" fill="none" fill-rule="evenodd">
    <g transform="translate(-282.000000, -5790.000000)">
      <g transform="translate(0.000000, 4965.000000)">
        <g transform="translate(282.000000, 825.000000)">
          <rect stroke="#DEE6F0" x="0.5" y="0.5" width="50" height="31" rx="1.6"></rect>
          <g transform="translate(11.156250, 7.200000)">
            <path d="M17.3907673,8.76937323 C17.3907673,13.6126992 13.5046735,17.5384693 8.71074085,17.5384693 C3.91639666,17.5384693 0.0300285511,13.6126992 0.0300285511,8.76937323 C0.0300285511,3.92618583 3.91639666,0 8.71074085,0 C13.5046735,0 17.3907673,3.92618583 17.3907673,8.76937323" fill="#D82332"></path>
            <path d="M20.4499567,0 C18.2066974,0 16.1631682,0.859628346 14.6223936,2.26984567 C14.3090808,2.55726614 14.0163446,2.86769134 13.746517,3.19821102 L15.5000535,3.19821102 C15.7395649,3.4928378 15.9604203,3.80257008 16.1617965,4.12699213 L13.0843625,4.12699213 C12.9004078,4.42508346 12.7329144,4.73481575 12.5843515,5.05577323 L16.6618075,5.05577323 C16.8011795,5.35635906 16.923816,5.66595276 17.0294424,5.98413858 L12.2167165,5.98413858 C12.1164399,6.28666457 12.0320759,6.59639685 11.9644476,6.91236535 L17.2812998,6.91236535 C17.4084631,7.51104252 17.4762287,8.13217008 17.4762287,8.76937323 C17.4762287,9.74291654 17.3192979,10.6800126 17.0294424,11.5551622 L12.2167165,11.5551622 C12.3222058,11.8732094 12.4449794,12.1830803 12.5840771,12.4840819 L16.6618075,12.4840819 C16.512833,12.8042079 16.3461626,13.1142173 16.1611106,13.4127244 L13.0843625,13.4127244 C13.2851899,13.7361764 13.5064568,14.0463244 13.746517,14.3405354 L15.4995048,14.3405354 C15.2300887,14.6713323 14.9372153,14.9817575 14.6228051,15.269178 C16.1634426,16.6793953 18.2066974,17.5384693 20.4499567,17.5384693 C25.2438893,17.5384693 29.1302574,13.6126992 29.1302574,8.76937323 C29.1302574,3.92660157 25.2438893,0 20.4499567,0" fill="#F1AB3E"></path>
            <path d="M27.8770063,13.8903167 C27.8770063,13.5665593 28.1388886,13.303937 28.4616671,13.303937 C28.7850175,13.303937 29.0457563,13.5665593 29.0457563,13.8903167 C29.0457563,14.214361 28.7850175,14.4772703 28.4616671,14.4772703 C28.1388886,14.4772703 27.8770063,14.214361 27.8770063,13.8903167 L27.8770063,13.8903167 Z M28.4616671,14.3366311 C28.7061097,14.3366311 28.9056664,14.1365789 28.9056664,13.8903167 C28.9056664,13.6431934 28.7061097,13.4448633 28.4616671,13.4448633 C28.216081,13.4448633 28.0170961,13.6431934 28.0170961,13.8903167 C28.0170961,14.1365789 28.216081,14.3366311 28.4616671,14.3366311 L28.4616671,14.3366311 Z M28.3824735,14.1477726 L28.2623964,14.1477726 L28.2623964,13.6331477 L28.4799646,13.6331477 C28.5248506,13.6331477 28.571166,13.6331477 28.6111917,13.6578313 C28.652075,13.6871073 28.6760905,13.7361875 28.6760905,13.7872769 C28.6760905,13.8455417 28.6426404,13.9000753 28.5868904,13.9207407 L28.6818084,14.1477726 L28.548866,14.1477726 L28.4699582,13.9442762 L28.3824735,13.9442762 L28.3824735,14.1477726 L28.3824735,14.1477726 Z M28.3824735,13.8555874 L28.4488017,13.8555874 C28.473389,13.8555874 28.4996915,13.8573095 28.5219916,13.8455417 C28.5414326,13.8326259 28.5520108,13.8096643 28.5520108,13.7861288 C28.5520108,13.7666115 28.5388595,13.74365 28.5225634,13.7336043 C28.5014069,13.7212625 28.4682428,13.7238457 28.4459428,13.7238457 L28.3824735,13.7238457 L28.3824735,13.8555874 L28.3824735,13.8555874 Z" fill="#F1AB3E"></path>
            <path d="M27.8770063,11.1192372 C27.8770063,10.7940447 28.1397174,10.5322835 28.4610951,10.5322835 C28.7847621,10.5322835 29.0457563,10.7940447 29.0457563,11.1192372 C29.0457563,11.4421334 28.7847621,11.7056168 28.4610951,11.7056168 C28.1397174,11.7056168 27.8770063,11.4421334 27.8770063,11.1192372 L27.8770063,11.1192372 Z M28.4610951,11.5649775 C28.7074941,11.5649775 28.9066739,11.3649253 28.9066739,11.1192372 C28.9066739,10.8732619 28.7074941,10.6732098 28.4610951,10.6732098 C28.2158407,10.6732098 28.0172334,10.8732619 28.0172334,11.1192372 C28.0172334,11.3649253 28.2158407,11.5649775 28.4610951,11.5649775 L28.4610951,11.5649775 Z M28.3823962,11.375545 L28.2627739,11.375545 L28.2627739,10.8609201 L28.4799828,10.8609201 C28.5254851,10.8609201 28.5712735,10.8626422 28.6110522,10.8873259 C28.6534065,10.9151667 28.6763008,10.964534 28.6763008,11.0156233 C28.6763008,11.0738882 28.642818,11.1284218 28.588158,11.1490871 L28.6825967,11.375545 L28.549524,11.375545 L28.4705389,11.1720486 L28.3823962,11.1720486 L28.3823962,11.375545 L28.3823962,11.375545 Z M28.3823962,11.0839338 L28.4487894,11.0839338 C28.4728284,11.0839338 28.5008738,11.08623 28.5220509,11.0738882 C28.541511,11.0615463 28.5515272,11.0368627 28.5515272,11.0144752 C28.5515272,10.994958 28.5400801,10.9731445 28.5231956,10.9610897 C28.5025908,10.949609 28.4688219,10.9527662 28.4465,10.9527662 L28.3823962,10.9527662 L28.3823962,11.0839338 L28.3823962,11.0839338 Z" fill="#FFFFFF"></path>
            <path d="M26.989058,6.79055118 L26.7795884,8.07562835 C26.5223811,7.73319055 26.2455575,7.48512756 25.8801173,7.48512756 C25.4045239,7.48512756 24.9718669,7.84932283 24.6884587,8.3856378 C24.2936626,8.30290394 23.8859719,8.16224252 23.8859719,8.16224252 L23.8856976,8.16570709 C23.916974,7.86595276 23.9304173,7.68357795 23.9272623,7.62121575 L23.0615368,7.62121575 C22.9439759,8.74110236 22.7340947,9.87498583 22.5704423,10.9952882 L22.5270943,11.2386394 L23.4701877,11.2386394 C23.597351,10.4038173 23.6946097,9.70979528 23.7664906,9.16017638 C24.0887199,8.86596535 24.2500403,8.60986457 24.5750131,8.62649449 C24.4309771,8.97877165 24.3467502,9.38426457 24.3467502,9.80028976 C24.3467502,10.7042646 24.7992979,11.3011402 25.4846354,11.3011402 C25.8300476,11.3011402 26.0949369,11.1807118 26.3535159,10.9018835 L26.3090705,11.2383622 L27.2007225,11.2383622 L27.9184338,6.79055118 L26.989058,6.79055118 L26.989058,6.79055118 Z M25.8104313,10.4029858 C25.4897109,10.4029858 25.3274303,10.1626835 25.3274303,9.68983937 C25.3274303,8.97877165 25.6310035,8.47474646 26.0583105,8.47474646 C26.382186,8.47474646 26.5576357,8.72364094 26.5576357,9.1831811 C26.5576357,9.90034646 26.2489869,10.4029858 25.8104313,10.4029858 L25.8104313,10.4029858 Z" fill="#0C2D5A"></path>
            <path d="M21.5716549,9.70896378 C21.4732988,9.69732283 21.4296764,9.69413543 21.3619109,9.69413543 C20.8278799,9.69413543 20.5575036,9.87900472 20.5575036,10.2444472 C20.5575036,10.4693669 20.6894681,10.6133543 20.895234,10.6133543 C21.2787815,10.6133543 21.5558795,10.2441701 21.5716549,9.70896378 L21.5716549,9.70896378 Z M22.257541,11.3202646 L21.4768654,11.3202646 L21.4945613,10.9456756 C21.2562844,11.2415496 20.938582,11.3830425 20.5071596,11.3830425 C19.9960372,11.3830425 19.6463724,10.9797669 19.6463724,10.3946709 C19.6463724,9.5135622 20.2548906,9.00052913 21.3005927,9.00052913 C21.4074537,9.00052913 21.5440822,9.0103685 21.6841402,9.02866142 C21.713359,8.90892598 21.7211781,8.85806614 21.7211781,8.79320945 C21.7211781,8.55401575 21.5575256,8.46490709 21.1170495,8.46490709 C20.656134,8.45936378 20.2762903,8.57535748 20.1194967,8.62704882 C20.1295107,8.5671811 20.2502266,7.81370709 20.2502266,7.81370709 C20.7199215,7.67457008 21.0293933,7.62204724 21.3779606,7.62204724 C22.1871691,7.62204724 22.6159851,7.98942992 22.6150249,8.68289764 C22.6168082,8.86873701 22.5863548,9.09864567 22.5388915,9.39964724 C22.4571339,9.92307402 22.2816842,11.0472567 22.257541,11.3202646 L22.257541,11.3202646 Z" fill="#0C2D5A"></path>
            <path d="M19.0858663,7.75370079 C19.3476004,7.75370079 19.5919131,7.8224378 19.9279973,7.99372598 L20.0823217,7.02849764 C19.9437727,6.9736189 19.4580281,6.6519685 19.0464964,6.6519685 C18.4160299,6.6519685 17.8822733,6.96849134 17.5077794,7.48970079 C16.9607166,7.30677165 16.7356088,7.67651024 16.4601569,8.04514016 L16.2152956,8.10279055 C16.2338145,7.98153071 16.2506873,7.86096378 16.2453374,7.73901102 L15.3793375,7.73901102 C15.2615023,8.85889764 15.0520327,9.9927811 14.8879687,11.1130835 L14.8451694,11.3564346 L15.7879885,11.3564346 C15.9451936,10.3234394 16.0312037,9.66226142 16.0837426,9.2143622 L16.4387573,9.01563465 C16.4921192,8.81593701 16.6576921,8.74886299 16.9906213,8.75703937 C16.9472733,8.99290709 16.9236788,9.24138583 16.9236788,9.49845669 C16.9236788,10.6820913 17.5564773,11.4189354 18.5706286,11.4189354 C18.8318141,11.4189354 19.0563732,11.3842898 19.4038431,11.2886677 L19.5688673,10.275074 C19.2565148,10.430148 19.0006792,10.5031811 18.7685754,10.5031811 C18.2206895,10.5031811 17.8892693,10.0945008 17.8892693,9.41946457 C17.8892693,8.43982362 18.3820099,7.75370079 19.0858663,7.75370079" fill="#0C2D5A"></path>
            <path d="M14.5210196,11.2366992 C14.1992018,11.3362016 13.888221,11.3833197 13.5596816,11.3830425 C12.5108245,11.3823496 11.9644476,10.8287118 11.9644476,9.76938583 C11.9644476,8.53253543 12.6596618,7.62204724 13.6033039,7.62204724 C14.3762976,7.62204724 14.8693126,8.13175433 14.8693126,8.93179213 C14.8693126,9.19690079 14.8350183,9.45563465 14.7540837,9.82107717 L12.8886106,9.82107717 C12.8252347,10.3458898 13.1578895,10.5648504 13.7026202,10.5648504 C14.0377442,10.5648504 14.3403572,10.4947276 14.6769901,10.3367433 L14.5210196,11.2366992 L14.5210196,11.2366992 Z M13.9945334,9.09157795 C13.999609,9.01591181 14.0937125,8.44592126 13.558447,8.44592126 C13.2602237,8.44592126 13.0469131,8.67610709 12.9599427,9.09157795 L13.9945334,9.09157795 L13.9945334,9.09157795 Z" fill="#0C2D5A"></path>
            <path d="M11.603248,11.3159685 C11.345492,11.3980094 11.1443901,11.4336252 10.9264155,11.4336252 C10.4446491,11.4336252 10.1815432,11.1538268 10.1815432,10.6392693 C10.1749587,10.4787906 10.251092,10.0590236 10.3109013,9.67487244 C10.3652235,9.33659213 10.7195523,7.20629921 10.7195523,7.20629921 L11.6561984,7.20629921 L11.546731,7.75370079 L12.0275371,7.75370079 L11.8995508,8.62289134 L11.4170985,8.62289134 C11.3083169,9.31137008 11.1530323,10.167811 11.151249,10.2814488 C11.151249,10.4685354 11.2500166,10.5494677 11.4741642,10.5494677 C11.5814368,10.5494677 11.6645662,10.5387969 11.7282164,10.5153764 L11.603248,11.3159685" fill="#0C2D5A"></path>
            <path d="M7.931437,8.84656378 C7.931437,9.30457953 8.15119492,9.61943937 8.64928545,9.8568315 C9.03077532,10.0380976 9.08976153,10.0917291 9.08976153,10.2560882 C9.08976153,10.4815622 8.92158225,10.5832819 8.54859736,10.5832819 C8.26738404,10.5832819 8.00592424,10.5392126 7.70413433,10.4409575 C7.70413433,10.4409575 7.58067482,11.2379465 7.5747762,11.2756409 C7.78890986,11.3230362 7.97999774,11.366274 8.55531904,11.3830425 C9.54985396,11.3830425 10.0091233,11.0006929 10.0091233,10.1740472 C10.0091233,9.6768126 9.81680085,9.38523465 9.344774,9.16627402 C8.94970358,8.98265197 8.90429792,8.94204724 8.90429792,8.77297638 C8.90429792,8.57743622 9.06081714,8.4768252 9.36548776,8.4768252 C9.55026549,8.4768252 9.80308313,8.4976126 10.0425946,8.53170394 L10.1767539,7.69286299 C9.93271561,7.65392126 9.5628858,7.62204724 9.34724319,7.62204724 C8.29303618,7.62204724 7.92828193,8.17831811 7.931437,8.84656378" fill="#0C2D5A"></path>
            <path d="M6.75719991,9.70896378 C6.65843231,9.69732283 6.61480995,9.69413543 6.54690722,9.69413543 C6.01273909,9.69413543 5.74236276,9.87900472 5.74236276,10.2444472 C5.74236276,10.4693669 5.87432726,10.6133543 6.08023028,10.6133543 C6.46418935,10.6133543 6.74087582,10.2441701 6.75719991,9.70896378 L6.75719991,9.70896378 Z M7.44253735,11.3202646 L6.66186174,11.3202646 L6.67969478,10.9456756 C6.44155511,11.2415496 6.12371546,11.3830425 5.69201872,11.3830425 C5.18130789,11.3830425 4.8312316,10.9797669 4.8312316,10.3946709 C4.8312316,9.5135622 5.44016133,9.00052913 6.485589,9.00052913 C6.59258724,9.00052913 6.72949011,9.0103685 6.86968524,9.02866142 C6.89890399,8.90892598 6.90658592,8.85806614 6.90658592,8.79320945 C6.90658592,8.55401575 6.74238477,8.46490709 6.30232022,8.46490709 C5.84099319,8.45936378 5.46101227,8.57535748 5.30463022,8.62704882 C5.31450698,8.5671811 5.43536012,7.81370709 5.43536012,7.81370709 C5.90491778,7.67457008 6.21466397,7.62204724 6.56323131,7.62204724 C7.37243979,7.62204724 7.80098146,7.98942992 7.80015839,8.68289764 C7.80180452,8.86873701 7.77135117,9.09864567 7.72402503,9.39964724 C7.64213022,9.92307402 7.46654337,11.0472567 7.44253735,11.3202646 L7.44253735,11.3202646 Z" fill="#0C2D5A"></path>
            <polyline fill="#0C2D5A" points="4.35755863 11.3768063 3.41528823 11.3768063 3.95521781 7.95769449 2.74984149 11.3768063 2.1075777 11.3768063 2.02815208 7.97751181 1.46078706 11.3768063 0.578737471 11.3768063 1.31551637 6.92913386 2.67069023 6.92913386 2.70841397 9.68249449 3.62283738 6.92913386 5.08638125 6.92913386 4.35755863 11.3768063"></polyline>
            <path d="M27.5757651,11.0996409 L26.6845246,11.0996409 L26.7286957,10.7630236 C26.4701166,11.0419906 26.2050902,11.1624189 25.8598151,11.1624189 C25.1748892,11.1624189 24.72193,10.5662362 24.72193,9.66129134 C24.72193,8.45811654 25.4244146,7.4439685 26.2551599,7.4439685 C26.6207372,7.4439685 26.8974237,7.59474646 27.1551797,7.93732283 L27.3642378,6.6519685 L28.2936135,6.6519685 L27.5757651,11.0996409 L27.5757651,11.0996409 Z M26.185611,10.2638488 C26.6247153,10.2638488 26.9328154,9.76148661 26.9328154,9.04501417 C26.9328154,8.58533543 26.7573657,8.33574803 26.4333531,8.33574803 C26.006046,8.33574803 25.7024728,8.83977323 25.7024728,9.55111811 C25.7024728,10.0246551 25.865165,10.2638488 26.185611,10.2638488 L26.185611,10.2638488 Z" fill="#FFFFFF"></path>
            <path d="M23.335754,7.38371647 C23.2177816,8.50332591 23.008312,9.63734796 22.8443852,10.7575117 L22.8014487,11.0008629 L23.7439935,11.0008629 C24.0810379,8.78880623 24.1622469,8.35712119 24.6912023,8.41102985 C24.7752919,7.95828024 24.9319483,7.56179521 25.0488233,7.36195898 C24.6541644,7.27880938 24.4337206,7.50414481 24.1448254,7.93236528 C24.1678711,7.74708024 24.2094358,7.56733851 24.2016167,7.38371647 L23.335754,7.38371647" fill="#FFFFFF"></path>
            <path d="M21.8460093,9.43179843 C21.7476533,9.42015748 21.7040309,9.41697008 21.6362653,9.41697008 C21.1022344,9.41697008 20.8318581,9.60183937 20.8318581,9.96728189 C20.8318581,10.1922016 20.9638226,10.336189 21.1695884,10.336189 C21.5531359,10.336189 21.830234,9.96700472 21.8460093,9.43179843 L21.8460093,9.43179843 Z M22.5318955,11.0430992 L21.7512199,11.0430992 L21.7689157,10.6685102 C21.5306389,10.9643843 21.2129364,11.1058772 20.781514,11.1058772 C20.2703917,11.1058772 19.9207269,10.7026016 19.9207269,10.1175055 C19.9207269,9.23639685 20.5292451,8.72336378 21.5749471,8.72336378 C21.6818082,8.72336378 21.8184367,8.73320315 21.9584947,8.75149606 C21.9877134,8.63176063 21.9955325,8.58090079 21.9955325,8.51604409 C21.9955325,8.27685039 21.8318801,8.18774173 21.391404,8.18774173 C20.9304885,8.18219843 20.5506447,8.29819213 20.3938512,8.34988346 C20.4038651,8.29001575 20.5245811,7.53654173 20.5245811,7.53654173 C20.9942759,7.39740472 21.3037477,7.34488189 21.6523151,7.34488189 C22.4615236,7.34488189 22.8903396,7.71226457 22.8893793,8.40573228 C22.8911626,8.59157165 22.8607093,8.82148031 22.813246,9.12248189 C22.7314884,9.64590866 22.5560387,10.7700913 22.5318955,11.0430992 L22.5318955,11.0430992 Z" fill="#FFFFFF"></path>
            <path d="M20.3354137,6.74440315 L20.1810893,7.7096315 C19.8445935,7.53875906 19.6008296,7.4696063 19.3392326,7.4696063 C18.6356506,7.4696063 18.1422241,8.15656063 18.1422241,9.13634016 C18.1422241,9.81137638 18.4739187,10.2192252 19.0218045,10.2192252 C19.2537712,10.2192252 19.5101555,10.1467465 19.8220965,9.99111811 L19.6565236,11.0047118 C19.3096023,11.1003339 19.0850432,11.1351181 18.8238578,11.1351181 C17.8091578,11.1351181 17.1771823,10.3981354 17.1771823,9.21477795 C17.1771823,7.62468031 18.0508641,6.51338583 19.2995884,6.51338583 C19.7111201,6.51338583 20.197139,6.68952441 20.3354137,6.74440315" fill="#FFFFFF"></path>
            <path d="M15.6543779,7.38371647 C15.5358567,8.50332591 15.3261128,9.63734796 15.1624603,10.7575117 L15.1195239,11.0008629 L16.062343,11.0008629 C16.3996618,8.78880623 16.4805963,8.35712119 17.0087287,8.41102985 C17.093367,7.95828024 17.2504349,7.56179521 17.3668984,7.36195898 C16.9725139,7.27880938 16.7517957,7.50414481 16.4634492,7.93236528 C16.4862206,7.74708024 16.5280597,7.56733851 16.5196918,7.38371647 L15.6543779,7.38371647" fill="#FFFFFF"></path>
            <path d="M14.7953741,10.9595339 C14.4735563,11.0590362 14.1625755,11.1061543 13.834036,11.1058772 C12.7851789,11.1051843 12.238802,10.5515465 12.238802,9.49222047 C12.238802,8.25537008 12.9340162,7.34488189 13.8776584,7.34488189 C14.6506521,7.34488189 15.143667,7.85458898 15.143667,8.65462677 C15.143667,8.91973543 15.1093727,9.17846929 15.0284382,9.54391181 L13.162965,9.54391181 C13.0995891,10.0687244 13.4322439,10.287685 13.9769747,10.287685 C14.3120987,10.287685 14.6147116,10.2175622 14.9513446,10.059578 L14.7953741,10.9595339 L14.7953741,10.9595339 Z M14.2688879,8.8144126 C14.2739634,8.73874646 14.368067,8.16875591 13.8328014,8.16875591 C13.5345781,8.16875591 13.3212675,8.39894173 13.2342972,8.8144126 L14.2688879,8.8144126 L14.2688879,8.8144126 Z" fill="#FFFFFF"></path>
            <path d="M11.8776024,11.0388031 C11.6198464,11.1208441 11.4187446,11.1564598 11.20077,11.1564598 C10.7190035,11.1564598 10.4558976,10.8766614 10.4558976,10.3621039 C10.4493131,10.2016252 10.5254465,9.78185827 10.5852557,9.39770709 C10.6395779,9.05942677 10.9939067,6.92913386 10.9939067,6.92913386 L11.9305528,6.92913386 L11.8210854,7.47653543 L12.3018916,7.47653543 L12.1739052,8.34572598 L11.6914529,8.34572598 C11.5826714,9.03420472 11.4273868,9.89064567 11.4256035,10.0042835 C11.4256035,10.1913701 11.5243711,10.2723024 11.7485187,10.2723024 C11.8557913,10.2723024 11.9389207,10.2616315 12.0025709,10.238211 L11.8776024,11.0388031" fill="#FFFFFF"></path>
            <path d="M8.20579146,8.56939843 C8.20579146,9.02741417 8.42554938,9.34227402 8.92363991,9.57966614 C9.30512978,9.76093228 9.36411599,9.81456378 9.36411599,9.97892283 C9.36411599,10.2043969 9.19593671,10.3061165 8.82295182,10.3061165 C8.5417385,10.3061165 8.2802787,10.2620472 7.97848879,10.1637921 C7.97848879,10.1637921 7.85502928,10.9607811 7.84913066,10.9984756 C8.06326432,11.0458709 8.2543522,11.0891087 8.8296735,11.1058772 C9.82420842,11.1058772 10.2834778,10.7235276 10.2834778,9.89688189 C10.2834778,9.39964724 10.0911553,9.10806929 9.61912846,8.88910866 C9.22405804,8.70548661 9.17865238,8.66488189 9.17865238,8.49581102 C9.17865238,8.30027087 9.3351716,8.19965984 9.63984222,8.19965984 C9.82461995,8.19965984 10.0774376,8.22044724 10.316949,8.25453858 L10.4511084,7.41569764 C10.2070701,7.37675591 9.83724026,7.34488189 9.62159765,7.34488189 C8.56739064,7.34488189 8.20263639,7.90115276 8.20579146,8.56939843" fill="#FFFFFF"></path>
            <path d="M7.03155437,9.43179843 C6.93278677,9.42015748 6.88916441,9.41697008 6.82126168,9.41697008 C6.28709355,9.41697008 6.01671722,9.60183937 6.01671722,9.96728189 C6.01671722,10.1922016 6.14868172,10.336189 6.35458474,10.336189 C6.73854381,10.336189 7.01523028,9.96700472 7.03155437,9.43179843 L7.03155437,9.43179843 Z M7.71689181,11.0430992 L6.9362162,11.0430992 L6.95404924,10.6685102 C6.71590957,10.9643843 6.39806992,11.1058772 5.96637318,11.1058772 C5.45566235,11.1058772 5.10558606,10.7026016 5.10558606,10.1175055 C5.10558606,9.23639685 5.71451579,8.72336378 6.75994346,8.72336378 C6.8669417,8.72336378 7.00384457,8.73320315 7.1440397,8.75149606 C7.17325845,8.63176063 7.18094038,8.58090079 7.18094038,8.51604409 C7.18094038,8.27685039 7.01673923,8.18774173 6.57667468,8.18774173 C6.11534765,8.18219843 5.73536673,8.29819213 5.57898468,8.34988346 C5.58886144,8.29001575 5.70971458,7.53654173 5.70971458,7.53654173 C6.17927224,7.39740472 6.48901843,7.34488189 6.83758577,7.34488189 C7.64679425,7.34488189 8.07533592,7.71226457 8.07451285,8.40573228 C8.07615898,8.59157165 8.04570563,8.82148031 7.99837949,9.12248189 C7.91648468,9.64590866 7.74089783,10.7700913 7.71689181,11.0430992 L7.71689181,11.0430992 Z" fill="#FFFFFF"></path>
            <polyline fill="#FFFFFF" points="4.63191309 11.0996409 3.68964269 11.0996409 4.22957227 7.68052913 3.02419595 11.0996409 2.38193216 11.0996409 2.30250654 7.70034646 1.73514152 11.0996409 0.853091931 11.0996409 1.58987083 6.6519685 2.94504469 6.6519685 2.98276843 9.40532913 3.89719184 6.6519685 5.36073571 6.6519685 4.63191309 11.0996409"></polyline>
          </g>
        </g>
      </g>
    </g>
  </g>
</svg>