<?xml version="1.0" encoding="UTF-8"?>
<svg width="51px" height="32px" viewBox="0 0 51 32" version="1.1" xmlns="http://www.w3.org/2000/svg" xmlns:xlink="http://www.w3.org/1999/xlink">
    <g stroke="none" stroke-width="1" fill="none" fill-rule="evenodd">
        <g transform="translate(-223.000000, -5790.000000)">
            <g transform="translate(0.000000, 4965.000000)">
                <g transform="translate(223.000000, 825.000000)">
                    <rect stroke="#DEE6F0" x="0.5" y="0.5" width="50" height="31" rx="1.6"></rect>
                    <g transform="translate(6.375000, 10.400000)">
                        <g transform="translate(36.493720, 10.211035)" fill="#1082EA">
                            <path d="M0.0959263489,0.679008914 C0.0959263489,0.341596474 0.368512092,0.068139979 0.704552221,0.068139979 C1.04118817,0.068139979 1.31317809,0.341596474 1.31317809,0.679008914 C1.31317809,1.01612249 1.04118817,1.28987785 0.704552221,1.28987785 C0.368512092,1.28987785 0.0959263489,1.01612249 0.0959263489,0.679008914 L0.0959263489,0.679008914 Z M0.704552221,1.14283895 C0.960753029,1.14283895 1.16750112,0.935131554 1.16750112,0.679008914 C1.16750112,0.421989695 0.960753029,0.214880022 0.704552221,0.214880022 C0.449543045,0.214880022 0.242497044,0.421989695 0.242497044,0.679008914 C0.242497044,0.935131554 0.449543045,1.14283895 0.704552221,1.14283895 L0.704552221,1.14283895 Z M0.622627544,0.946787077 L0.498102036,0.946787077 L0.498102036,0.410334172 L0.723916236,0.410334172 C0.770985687,0.410334172 0.818650953,0.410931891 0.860358061,0.437231532 C0.903554709,0.467715207 0.927983158,0.518222472 0.927983158,0.571419473 C0.927983158,0.632685683 0.893127932,0.689468998 0.835929612,0.710389167 L0.933643409,0.946787077 L0.795116228,0.946787077 L0.714085275,0.734297932 L0.622627544,0.734297932 L0.622627544,0.946787077 L0.622627544,0.946787077 Z M0.622627544,0.642548048 L0.691146365,0.642548048 C0.717064354,0.642548048 0.74476979,0.644938924 0.767410792,0.632685683 C0.787966438,0.619237002 0.798691123,0.5941328 0.798691123,0.570224035 C0.798691123,0.550499304 0.78617899,0.52659054 0.768602423,0.516130455 C0.746557237,0.503279494 0.711999919,0.50596923 0.688763102,0.50596923 L0.622627544,0.50596923 L0.622627544,0.642548048 L0.622627544,0.642548048 Z"></path>
                        </g>
                        <path d="M33.5852663,11.5391399 L33.2404967,9.86523904 L29.4998904,9.86523904 L28.8866999,11.5391399 L25.8202671,11.5391399 L30.2076765,1.10731297 C30.2076765,1.10731297 30.4741767,0.267728353 31.5665874,0.267728353 L33.9314764,0.267728353 L36.2867619,11.5391399 L33.5852663,11.5391399 Z M30.3478892,7.55243006 L32.7636774,7.55243006 L31.8935903,3.33343352 L30.3478892,7.55243006 Z" fill="#0066B2"></path>
                        <path d="M26.0497933,2.97805886 L26.4699513,0.55748802 C26.4699513,0.55748802 25.1739441,0.0660939405 23.8236764,0.0660939405 C22.3634475,0.0660939405 18.8960639,0.702607324 18.8960639,3.79752793 C18.8960639,6.70997179 22.966074,6.74637135 22.966074,8.27467399 C22.966074,9.80393451 19.3157417,9.5309378 18.1104886,8.56634942 L17.6735243,11.0965979 C17.6735243,11.0965979 18.986818,11.7335902 20.994933,11.7335902 C23.0020876,11.7335902 26.0320267,10.6962027 26.0320267,7.87475775 C26.0320267,4.94411412 21.9255228,4.67063846 21.9255228,3.39665381 C21.9255228,2.12219022 24.7912402,2.28598825 26.0497933,2.97805886" fill="#0066B2"></path>
                        <polyline fill="#0066B2" points="15.8603627 11.5391399 12.9182966 11.5391399 14.7569078 0.267728353 17.6999342 0.267728353 15.8603627 11.5391399"></polyline>
                        <path d="M2.60185816,0.267728353 L4.92040981,0.267728353 C6.19672964,0.267728353 6.31581441,1.2826056 6.31581441,1.2826056 L7.30594665,6.35124453 C7.30594665,6.35124453 6.64041645,4.29514825 4.59628796,2.6447155 C2.45852428,0.919088927 0.22952629,0.458347109 0.229046109,0.458347109 L0.283306508,0.267728353 L2.60185816,0.267728353 L4.92040981,0.267728353 C6.19672964,0.267728353 6.31581441,1.2826056 6.31581441,1.2826056 L7.30594665,6.35124453 L7.30594665,6.35076559 L7.63823157,8.020356 L10.442966,0.267728353 L13.6097565,0.267728353 L8.92847663,11.5391399 L5.86300418,11.5391399 L3.30748344,1.74670001 C1.64749937,0.75241725 0.22952629,0.458347109 0.229046109,0.458347109 L0.283306508,0.267728353 L2.60185816,0.267728353 Z" fill="#0066B2"></path>
                        <path d="M7.30594665,6.35124453 L6.31581441,1.2826056 C6.31581441,1.2826056 6.19672964,0.267728353 4.92040981,0.267728353 L0.283306508,0.267728353 L0.229046109,0.458347109 C0.22952629,0.458347109 2.45852428,0.919088927 4.59628796,2.6447155 C6.64041645,4.29514825 7.30594665,6.35124453 7.30594665,6.35124453" fill="#F9A533"></path>
                    </g>
                </g>
            </g>
        </g>
    </g>
</svg>