<svg width="24" height="24" viewBox="0 0 24 24" fill="none" xmlns="http://www.w3.org/2000/svg">
<path d="M7.23865 19.761V12.744L7.77842 12.564L9.39774 11.4845L10.4773 9.50534L10.8371 7.16632L11.3769 6.08678L12.8163 6.62655L13.536 8.42579V10.7648L18.0341 10.5849L18.7538 11.8444L18.214 13.1038L18.7538 14.3633L17.8542 15.4428L18.394 16.3425L17.8542 17.422L16.9546 17.6019L17.3144 19.0413L16.5947 19.761H7.23865Z" fill="white"/>
<g clip-path="url(#clip0_1180_9939)">
<path d="M4.71973 12.0758H7.23867V20.3523H4.71973V12.0758Z" fill="#B8D7FF"/>
<path d="M4.91407 20.928C4.44986 20.928 4.07202 20.5538 4.07202 20.0932V12.2341C4.07202 11.7735 4.44986 11.3992 4.91407 11.3992H6.99399C7.4366 11.3992 7.80005 11.7411 7.83244 12.1693C10.283 11.2481 10.6033 8.34053 10.6141 8.21818V7.21061C10.5493 6.14186 11.2078 5.73883 11.5641 5.67765C11.5929 5.67045 11.6252 5.67045 11.654 5.67045C12.3773 5.67045 13.0718 6.01591 13.5108 6.58087C14.3313 7.65322 14.2305 9.3589 14.083 10.3305H17.7499C18.6207 10.3305 19.326 11.0322 19.326 11.8922C19.326 12.3205 19.1497 12.7235 18.8438 13.0186C19.1533 13.31 19.326 13.7167 19.326 14.1449C19.326 14.6919 19.0381 15.1956 18.5703 15.4763C18.7646 15.7426 18.8726 16.0665 18.8726 16.3939C18.8726 17.11 18.3796 17.729 17.6851 17.9089C17.8074 18.1356 17.8722 18.3875 17.8722 18.6502C17.8722 19.5102 17.1669 20.2119 16.2961 20.2119H7.82884C7.77486 20.6222 7.41861 20.9352 6.99399 20.9352H4.91407V20.928ZM6.95801 20.0536V12.2701H4.95005V20.0536H6.95441H6.95801ZM16.2997 19.3303C16.4868 19.3303 16.6595 19.2583 16.7927 19.1288C16.9258 18.9992 16.9978 18.8265 16.9978 18.643C16.9978 18.2652 16.6883 17.9557 16.3105 17.9557H15.5584C15.3173 17.9557 15.1194 17.7614 15.1194 17.5203C15.1194 17.3583 15.2093 17.2144 15.3533 17.1352C15.418 17.1028 15.49 17.0848 15.562 17.0848H17.3037C17.6887 17.0848 18.0018 16.7754 18.0018 16.3939C18.0018 16.0125 17.6887 15.703 17.3037 15.703H15.159C14.9179 15.703 14.7199 15.5087 14.7199 15.2676C14.7199 15.0265 14.9179 14.8322 15.159 14.8322H17.7607C18.1457 14.8322 18.4588 14.5227 18.4588 14.1413C18.4588 13.7598 18.1457 13.4504 17.7607 13.4504H14.8027C14.5616 13.4504 14.3637 13.2561 14.3637 13.015C14.3637 12.7739 14.5616 12.5795 14.8027 12.5795H17.7607C18.1457 12.5795 18.4588 12.2701 18.4588 11.8886C18.4588 11.5072 18.1457 11.1977 17.7607 11.1977H13.5684C13.4533 11.1977 13.3453 11.1545 13.259 11.0718C13.1762 10.9926 13.1294 10.8811 13.1294 10.7623C13.1294 10.7299 13.133 10.6975 13.1402 10.6652C13.1474 10.64 13.6836 8.22898 12.8235 7.10625C12.5608 6.76439 12.147 6.55568 11.7116 6.54129C11.6432 6.57727 11.4777 6.71042 11.5065 7.17462V8.25777C11.5065 8.25777 11.4165 9.29053 10.8588 10.4313C10.2002 11.7735 9.16028 12.6911 7.85043 13.0869V19.3303H16.3069H16.2997Z" fill="#1566DC"/>
<path d="M11.654 5.74242C12.3557 5.74242 13.0286 6.07708 13.4532 6.62765C14.2917 7.72519 14.1405 9.52083 14.0002 10.4061H17.7534C18.5811 10.4061 19.2576 11.0718 19.2576 11.8958C19.2576 12.3456 19.0561 12.7487 18.7394 13.0222C19.0561 13.2956 19.2576 13.6987 19.2576 14.1485C19.2576 14.7134 18.9373 15.21 18.4623 15.4547C18.671 15.7102 18.8006 16.0377 18.8006 16.3939C18.8006 17.1208 18.2716 17.7254 17.5735 17.8585C17.7174 18.0888 17.8038 18.3551 17.8038 18.6466C17.8038 19.467 17.1273 20.1364 16.2996 20.1364H7.76402C7.74242 20.5394 7.40417 20.8597 6.99394 20.8597H4.91402C4.48939 20.8597 4.14394 20.5178 4.14394 20.0968V12.2341C4.14394 11.8167 4.48939 11.4712 4.91402 11.4712H6.99394C7.41856 11.4712 7.76402 11.8131 7.76402 12.2341V12.2737C10.3189 11.3848 10.6716 8.38011 10.6896 8.22538V7.21061C10.6284 6.18504 11.2438 5.8072 11.5784 5.74962C11.6036 5.74242 11.6324 5.74242 11.654 5.74242ZM7.76761 19.4059H16.296C16.5011 19.4059 16.6955 19.3267 16.8394 19.1828C16.9833 19.0388 17.0661 18.8481 17.0661 18.643C17.0661 18.2256 16.7278 17.8837 16.3068 17.8801H15.5547C15.3496 17.8801 15.1877 17.7182 15.1877 17.5167C15.1877 17.3799 15.2669 17.2576 15.382 17.1964C15.436 17.1676 15.4936 17.1532 15.5583 17.1532H17.3C17.7246 17.1532 18.0701 16.8114 18.0701 16.3903C18.0701 15.9693 17.7246 15.6275 17.3 15.6275H15.1553C14.9502 15.6275 14.7883 15.4655 14.7883 15.264C14.7883 15.0625 14.9502 14.9006 15.1553 14.9006H17.757C18.1816 14.9006 18.5271 14.5587 18.5271 14.1377C18.5271 13.7167 18.1816 13.3748 17.757 13.3748H14.7991C14.5939 13.3748 14.432 13.2129 14.432 13.0114C14.432 12.8098 14.5939 12.6479 14.7991 12.6479H17.757C18.1816 12.6479 18.5271 12.3061 18.5271 11.885C18.5271 11.464 18.1816 11.1222 17.757 11.1222H13.5648C13.4676 11.1222 13.3777 11.0826 13.3057 11.0142C13.2337 10.9458 13.1977 10.8559 13.1977 10.7587C13.1977 10.7299 13.1977 10.7047 13.2085 10.6759C13.2157 10.6508 13.7663 8.22178 12.8775 7.05587C12.5968 6.69242 12.1542 6.47292 11.6936 6.46212C11.6144 6.49451 11.3985 6.63485 11.4309 7.17102V8.25057C11.4309 8.25057 11.3373 9.27254 10.7867 10.3917C10.1246 11.7411 9.08826 12.6443 7.77121 13.0258V19.3951M4.91761 20.1184H6.99754C7.01553 20.1184 7.02992 20.104 7.02992 20.086V12.2341C7.02992 12.2161 7.01553 12.2017 6.99754 12.2017H4.91402C4.89602 12.2017 4.88163 12.2161 4.88163 12.2341V20.0932C4.88163 20.1112 4.89602 20.1256 4.91402 20.1256M11.654 5.59848C11.6252 5.59848 11.5856 5.59848 11.5424 5.60928C11.1754 5.67405 10.4773 6.09508 10.5456 7.2178V8.22538C10.5348 8.33333 10.2254 11.1294 7.89356 12.0722C7.81439 11.6511 7.44375 11.3309 6.99394 11.3309H4.91402C4.41023 11.3309 4 11.7375 4 12.2377V20.1004C4 20.6006 4.41023 21.0072 4.91402 21.0072H6.99394C7.43295 21.0072 7.8036 20.6977 7.88996 20.2839H16.2996C17.21 20.2839 17.9477 19.5498 17.9477 18.6502C17.9477 18.4091 17.8938 18.1716 17.793 17.9557C18.4731 17.7434 18.9481 17.1172 18.9481 16.3975C18.9481 16.0809 18.8545 15.7678 18.6782 15.5015C19.1316 15.2028 19.4051 14.6991 19.4051 14.1485C19.4051 13.7275 19.2432 13.3244 18.9517 13.0258C19.2432 12.7235 19.4051 12.3241 19.4051 11.8994C19.4051 10.9998 18.6674 10.2657 17.757 10.2657H14.1729C14.3133 9.26894 14.3888 7.60644 13.572 6.54489C13.115 5.95114 12.3989 5.59848 11.654 5.59848ZM7.91155 13.1445C9.2178 12.7343 10.2542 11.8095 10.9127 10.4672C11.4777 9.31572 11.5712 8.27216 11.5712 8.26496V7.18542C11.5496 6.85076 11.6324 6.67803 11.7223 6.62045C12.129 6.63845 12.514 6.83636 12.7587 7.15663C13.6008 8.26136 13.0682 10.6292 13.0646 10.6544C13.0538 10.6939 13.0502 10.7335 13.0502 10.7695C13.0502 10.9098 13.1042 11.0358 13.2013 11.1294C13.3021 11.2229 13.428 11.2769 13.5612 11.2769H17.7534C18.0989 11.2769 18.3795 11.554 18.3795 11.8958C18.3795 12.2377 18.0989 12.5148 17.7534 12.5148H14.7955C14.5148 12.5148 14.2845 12.7415 14.2845 13.0222C14.2845 13.3028 14.5148 13.5295 14.7955 13.5295H17.7534C18.0989 13.5295 18.3795 13.8066 18.3795 14.1485C18.3795 14.4903 18.0989 14.7674 17.7534 14.7674H17.6347H15.1517C14.871 14.7674 14.6407 14.9941 14.6407 15.2748C14.6407 15.5555 14.871 15.7822 15.1517 15.7822H17.2964C17.6419 15.7822 17.9225 16.0593 17.9225 16.4011C17.9225 16.743 17.6419 17.0201 17.2964 17.0201H15.5547C15.4684 17.0201 15.3856 17.0417 15.3136 17.0777C15.1445 17.1676 15.0402 17.3403 15.0402 17.5275C15.0402 17.8081 15.2705 18.0348 15.5511 18.0348H16.3032C16.6415 18.0348 16.9186 18.3155 16.9186 18.6538C16.9186 18.8193 16.8538 18.9741 16.735 19.0892C16.6163 19.208 16.458 19.2691 16.2924 19.2691H7.91155V13.1445ZM5.02557 12.3456H6.88599V19.9852H5.02197V12.342L5.02557 12.3456Z" fill="white"/>
</g>
<g clip-path="url(#clip1_1180_9939)">
<path d="M6.97949 6.9983C6.87514 6.9947 6.7312 6.94432 6.65203 6.7392C6.59086 6.58447 6.4973 6.44773 6.37495 6.32538C6.2562 6.20663 6.11946 6.11667 5.97192 6.05909C5.75241 5.97273 5.70923 5.82159 5.70923 5.71364C5.70923 5.60928 5.75241 5.46174 5.96472 5.37538C6.29218 5.23864 6.51529 5.01553 6.65203 4.69167C6.7204 4.52254 6.82836 4.43617 6.9759 4.42898C7.10184 4.42898 7.24578 4.47216 7.33215 4.68087C7.46889 5.00833 7.69199 5.23144 8.01226 5.36818C8.08063 5.39697 8.25336 5.46894 8.27855 5.68125V5.70644V5.73163C8.27135 5.83239 8.22097 5.97273 8.02665 6.05189C7.74237 6.16705 7.53006 6.35777 7.38612 6.63485C7.36813 6.67083 7.35014 6.71042 7.33574 6.7464C7.24578 6.95152 7.10184 6.9947 6.99749 6.9947H6.97949V6.9983Z" fill="#B8D7FF"/>
<path d="M6.99388 4.69886C7.05145 4.69886 7.06944 4.75284 7.08744 4.79602C7.24937 5.18106 7.52285 5.45095 7.90429 5.61648C7.95107 5.63447 8.00145 5.65246 8.00865 5.71364C8.00505 5.76761 7.96547 5.78561 7.92229 5.8036C7.57683 5.94394 7.31774 6.18144 7.14501 6.5089C7.11982 6.55208 7.10183 6.59886 7.08024 6.64564C7.06225 6.68523 7.04426 6.72841 6.99388 6.72841C6.99388 6.72841 6.99388 6.72841 6.99028 6.72841C6.9363 6.72841 6.91831 6.68523 6.90032 6.64205C6.82475 6.45133 6.7096 6.2822 6.56206 6.13466C6.41812 5.99432 6.25619 5.88277 6.06907 5.8072C6.02588 5.7892 5.97551 5.77121 5.97551 5.71364C5.97551 5.65606 6.02588 5.63807 6.06907 5.62008C6.4577 5.45814 6.73119 5.18466 6.89312 4.79602C6.91111 4.75284 6.9291 4.70246 6.98308 4.69886C6.98308 4.69886 6.98668 4.69886 6.99028 4.69886M6.99028 4.15909H6.95429C6.80676 4.16989 6.54047 4.23466 6.39653 4.58371C6.28498 4.8464 6.11585 5.01553 5.85676 5.12348C5.48251 5.28182 5.43933 5.58769 5.43933 5.71364C5.43933 5.83958 5.47891 6.15625 5.87115 6.31099C5.9899 6.35777 6.09066 6.42614 6.18422 6.5197C6.28138 6.61686 6.34975 6.72121 6.40013 6.84356C6.54407 7.21061 6.84274 7.26458 6.96509 7.27178H6.97948H6.99748C7.11982 7.27178 7.4221 7.2322 7.58043 6.86515C7.59482 6.83277 7.60922 6.79678 7.62361 6.76799C7.73876 6.54849 7.90429 6.40095 8.131 6.30739C8.48365 6.16345 8.54122 5.87197 8.55202 5.75682V5.70644V5.65606C8.53763 5.51572 8.46206 5.26383 8.131 5.13068C7.86471 5.01553 7.69558 4.8464 7.59123 4.59451C7.43289 4.20587 7.12702 4.16629 7.00107 4.16629L6.99028 4.15909Z" fill="white"/>
</g>
<path d="M11.8505 2.79453C11.8531 2.87066 11.8227 2.93738 11.7684 2.99255C11.6264 3.13668 11.4861 3.28295 11.3386 3.42066C11.2 3.54982 11.0247 3.54726 10.9109 3.42537C10.7929 3.2992 10.8006 3.13925 10.9361 2.99896C11.0768 2.85398 11.2197 2.71028 11.366 2.57042C11.4596 2.48104 11.5734 2.46479 11.6906 2.52081C11.8026 2.57385 11.8561 2.66623 11.8505 2.79453V2.79453Z" fill="#1566DC"/>
<path d="M11.8486 4.54886C11.8469 4.66733 11.7896 4.75073 11.6848 4.8012C11.5792 4.85252 11.471 4.84739 11.3863 4.76827C11.2152 4.60874 11.0476 4.44451 10.8897 4.27172C10.7922 4.16523 10.8051 4.01383 10.8983 3.90648C10.9898 3.80041 11.1455 3.76192 11.2588 3.84703C11.4675 4.00356 11.6459 4.19474 11.8123 4.39575C11.8478 4.43895 11.8499 4.49412 11.849 4.54801L11.8486 4.54886Z" fill="#1566DC"/>
<path d="M9.82689 4.83029C9.69516 4.83201 9.60663 4.77983 9.5506 4.67889C9.49073 4.57069 9.49372 4.45564 9.57669 4.36583C9.73536 4.1939 9.90045 4.0271 10.0732 3.86928C10.1802 3.77134 10.3311 3.78503 10.4376 3.87869C10.542 3.97022 10.5818 4.13017 10.4984 4.23966C10.3401 4.44666 10.1511 4.62672 9.94835 4.7918C9.91071 4.8226 9.86196 4.83201 9.82689 4.83029Z" fill="#1566DC"/>
<path d="M10.5355 3.20217C10.5325 3.34288 10.4769 3.42884 10.3756 3.48273C10.2721 3.5379 10.1617 3.53491 10.0771 3.45664C9.90512 3.2984 9.73832 3.13417 9.58051 2.96181C9.48385 2.85617 9.49839 2.70306 9.59035 2.59699C9.68144 2.49221 9.83926 2.45329 9.95046 2.53797C10.157 2.69579 10.3405 2.8814 10.4996 3.0884C10.5291 3.12647 10.5377 3.17565 10.5355 3.20174V3.20217Z" fill="#1566DC"/>
<path d="M17.9941 7.26083C17.9941 7.17059 17.9898 7.07992 17.9949 6.98968C18.0052 6.80578 18.1147 6.69073 18.2776 6.6856C18.4461 6.68046 18.5676 6.78225 18.5796 6.96658C18.5924 7.16246 18.592 7.36006 18.5809 7.55594C18.5706 7.73984 18.4487 7.84847 18.2849 7.84633C18.1172 7.84377 18.0031 7.72273 17.9941 7.53156C17.9898 7.44132 17.9932 7.35107 17.9936 7.26041L17.9941 7.26083Z" fill="#1566DC"/>
<path d="M18.5799 9.01947C18.5799 9.12554 18.5897 9.23289 18.5777 9.33767C18.5585 9.50148 18.4396 9.60412 18.2908 9.60455C18.1432 9.60455 18.0106 9.49848 18.0008 9.34067C17.9875 9.12896 17.9884 8.91512 18.0012 8.70341C18.0111 8.54431 18.1415 8.43782 18.2886 8.43739C18.4387 8.43654 18.5564 8.53747 18.576 8.7017C18.5884 8.80649 18.5782 8.91384 18.5782 9.0199C18.5786 9.0199 18.5794 9.0199 18.5799 9.0199V9.01947Z" fill="#1566DC"/>
<path d="M17.4189 8.42927C17.3179 8.42927 17.217 8.43312 17.1161 8.42841C16.9488 8.42071 16.8423 8.31892 16.8329 8.16453C16.8231 8.00457 16.9253 7.86387 17.0874 7.85446C17.3042 7.84163 17.5232 7.8412 17.7401 7.85488C17.9013 7.86515 18.0026 8.00757 17.9915 8.16752C17.9808 8.32063 17.8731 8.42114 17.7054 8.42884C17.61 8.43312 17.5142 8.42969 17.4189 8.42969V8.42927Z" fill="#1566DC"/>
<path d="M19.1655 8.42871C19.0646 8.42871 18.9636 8.43299 18.8627 8.42743C18.704 8.41887 18.6018 8.31922 18.5898 8.17082C18.577 8.01471 18.6668 7.87144 18.8212 7.85946C19.0479 7.84193 19.278 7.84235 19.5047 7.85818C19.6612 7.86887 19.7574 8.00872 19.7489 8.16098C19.7407 8.31366 19.6317 8.42016 19.4679 8.42828C19.3674 8.43342 19.266 8.42914 19.1651 8.42914L19.1655 8.42871Z" fill="#1566DC"/>
<g clip-path="url(#clip2_1180_9939)">
<path d="M16.0622 6.46212C15.7887 6.44773 15.6951 6.21383 15.6627 6.13466C15.5404 5.82879 15.3569 5.5553 15.1194 5.3142C14.8855 5.0803 14.6156 4.90398 14.3241 4.78523C14.2269 4.74564 13.9858 4.64848 13.9858 4.3642C13.9858 4.08712 14.2233 3.98996 14.3097 3.95038C14.9538 3.68049 15.3928 3.24148 15.6591 2.60814C15.6987 2.50739 15.7923 2.28068 16.0586 2.26629C16.3608 2.26629 16.4544 2.50019 16.4904 2.58655C16.7603 3.23068 17.1957 3.6661 17.829 3.93958C17.9406 3.98636 18.1457 4.07273 18.1781 4.32822V4.35341V4.3786C18.1565 4.64848 17.9334 4.74205 17.8578 4.77083C17.2928 5.00114 16.8826 5.37538 16.5947 5.91875C16.5552 5.99072 16.5228 6.06989 16.4904 6.14545C16.458 6.22102 16.3572 6.45492 16.0838 6.45492H16.0622V6.46212Z" fill="#B8D7FF"/>
<path d="M16.0837 2.53941C16.1881 2.53941 16.2169 2.63657 16.2493 2.71574C16.5408 3.40665 17.0337 3.89604 17.7211 4.19112C17.8038 4.2271 17.8938 4.25229 17.9082 4.36384C17.901 4.461 17.829 4.49699 17.7534 4.52578C17.1309 4.77767 16.6667 5.20589 16.3536 5.79604C16.3104 5.87521 16.2745 5.95797 16.2385 6.04074C16.2061 6.11631 16.1737 6.18828 16.0801 6.18828H16.0729C15.9794 6.18468 15.9434 6.10911 15.911 6.02994C15.7743 5.68449 15.5692 5.38221 15.3065 5.11953C15.051 4.86403 14.7559 4.66612 14.4212 4.53297C14.3421 4.50059 14.2521 4.4682 14.2521 4.36384C14.2521 4.25949 14.3421 4.2271 14.4212 4.19471C15.1194 3.90324 15.6123 3.41024 15.9038 2.71214C15.9362 2.63297 15.965 2.54301 16.0694 2.53581C16.0694 2.53581 16.0765 2.53581 16.0801 2.53581M16.0801 1.99604H16.0406C15.7527 2.01403 15.544 2.17956 15.4144 2.48903C15.1697 3.06839 14.7811 3.46062 14.2125 3.69453C13.8023 3.87085 13.7159 4.15513 13.7159 4.36384C13.7159 4.57975 13.8023 4.86763 14.2197 5.03676C14.486 5.14471 14.7163 5.29585 14.9286 5.50816C15.1409 5.72047 15.3065 5.96517 15.4144 6.23506C15.5692 6.62729 15.8462 6.72085 16.0514 6.73165H16.0658H16.0873C16.2925 6.73165 16.5695 6.64888 16.7387 6.26024C16.7675 6.18828 16.7998 6.1199 16.8322 6.05513C17.0877 5.56934 17.4584 5.23468 17.9586 5.02956C18.0449 4.99358 18.1169 4.9504 18.1781 4.90721C18.1781 4.90721 18.3184 4.79926 18.3904 4.66971C18.4623 4.54017 18.4444 4.30627 18.4444 4.30627C18.412 4.03278 18.2464 3.83127 17.9514 3.70892L17.9334 3.70172C17.3684 3.45703 16.9798 3.06839 16.7459 2.51422L16.7387 2.49623C16.5731 2.0932 16.2889 2.00684 16.0801 2.00684V1.99604Z" fill="white"/>
</g>
<defs>
<clipPath id="clip0_1180_9939">
<rect width="15.4015" height="15.4015" fill="white" transform="translate(4 5.59848)"/>
</clipPath>
<clipPath id="clip1_1180_9939">
<rect width="3.11269" height="3.10909" fill="white" transform="translate(5.43933 4.15909)"/>
</clipPath>
<clipPath id="clip2_1180_9939">
<rect width="4.73201" height="4.73201" fill="white" transform="translate(13.7159 2)"/>
</clipPath>
</defs>
</svg>
