<?xml version="1.0" encoding="UTF-8"?>
<svg width="90px" height="24px" viewBox="0 0 90 24" version="1.1" xmlns="http://www.w3.org/2000/svg" xmlns:xlink="http://www.w3.org/1999/xlink">
    <g stroke="none" stroke-width="1" fill="none" fill-rule="evenodd">
        <g transform="translate(70.000000, 1.800000)" stroke="#000000">
            <g transform="translate(2.000000, 0.000000)">
                <path d="M8,-0.273100538 L17,4.92305188 L17,15.3153567 L8,20.5115092 L-1,15.3153567 L-1,4.92305188 L8,-0.273100538 Z" stroke-width="2"></path>
                <path d="M8.01459007,14.053337 C10.1753473,14.053337 11.9269872,12.3016971 11.9269872,10.1409398 C11.9269872,7.98018258 10.1753473,6.22854273 8.01459007,6.22854273 C5.85383281,6.22854273 4.10219295,7.98018258 4.10219295,10.1409398 C4.10219295,12.3016971 5.85383281,14.053337 8.01459007,14.053337 Z" stroke-width="2"></path>
            </g>
        </g>
        <path d="M7.725,2 C8.191669,2 8.61666475,2.02499975 9,2.075 L9,5.225 C8.6999985,5.1916665 8.416668,5.175 8.15,5.175 C7.5166635,5.175 6.99583537,5.36249813 6.5875,5.7375 C6.17916463,6.11250188 5.975,6.60833025 5.975,7.225 L5.975,8.65 L8.975,8.65 L8.975,11.8 L5.975,11.8 L5.975,21.575 L2.35,21.575 L2.35,11.8 L0,11.8 L0,8.65 L2.35,8.65 L2.35,7.325 C2.35,5.70832525 2.83749513,4.4166715 3.8125,3.45 C4.78750488,2.4833285 6.0916585,2 7.725,2 Z M13,2.225 C13.6166697,2.225 14.1374979,2.43749787 14.5625,2.8625 C14.9875021,3.28750213 15.2,3.80833025 15.2,4.425 C15.2,5.025003 14.9875021,5.53749788 14.5625,5.9625 C14.1374979,6.38750213 13.6166697,6.6 13,6.6 C12.3833302,6.6 11.8666687,6.38750213 11.45,5.9625 C11.0333312,5.53749788 10.825,5.025003 10.825,4.425 C10.825,3.824997 11.0416645,3.3083355 11.475,2.875 C11.9083355,2.4416645 12.4166637,2.225 13,2.225 Z M14.825,21.575 L11.175,21.575 L11.175,8.65 L14.825,8.65 L14.825,21.575 Z M26.075,15.05 L30.175,21.575 L26,21.575 L23.525,17.55 L21.075,21.575 L16.925,21.575 L20.95,15.05 L16.975,8.65 L21.125,8.65 L23.525,12.6 L25.925,8.65 L30.075,8.65 L26.075,15.05 Z M36.725,11.8 L36.7,16.6 C36.7,17.26667 36.8833315,17.7583318 37.25,18.075 C37.6166685,18.3916683 38.0833305,18.55 38.65,18.55 C38.9333348,18.55 39.308331,18.5083338 39.775,18.425 L39.775,21.675 C39.0749965,21.7750005 38.4000032,21.825 37.75,21.825 C36.283326,21.825 35.1291709,21.4625036 34.2875,20.7375 C33.4458291,20.0124964 33.0333332,18.9250073 33.05,17.475 L33.075,11.8 L30.725,11.8 L30.725,8.65 L33.1,8.65 L33.125,4.375 L36.775,4.375 L36.75,8.65 L39.775,8.65 L39.775,11.8 L36.725,11.8 Z M54.4,16.275 L45.525,16.275 C45.5583335,17.0916708 45.8124976,17.733331 46.2875,18.2 C46.7625024,18.666669 47.4083293,18.9 48.225,18.9 C49.5250065,18.9 50.3166652,18.4250047 50.6,17.475 L54.275,17.65 C54.0416655,18.8833395 53.3708389,19.8916628 52.2625,20.675 C51.1541611,21.4583373 49.8416743,21.85 48.325,21.85 C46.32499,21.85 44.7125061,21.2416728 43.4875,20.025 C42.2624939,18.8083273 41.65,17.1750103 41.65,15.125 C41.65,13.058323 42.2583273,11.4208394 43.475,10.2125 C44.6916727,9.00416063 46.2749902,8.4 48.225,8.4 C50.1083427,8.4 51.6083278,8.97082763 52.725,10.1125 C53.8416723,11.2541724 54.4,12.82499 54.4,14.825 L54.4,16.275 Z M48.2,11.25 C47.4166628,11.25 46.7875024,11.4791644 46.3125,11.9375 C45.8374976,12.3958356 45.5750003,13.0333293 45.525,13.85 L50.725,13.85 C50.6916665,13.0333293 50.4625021,12.3958356 50.0375,11.9375 C49.6124979,11.4791644 49.000004,11.25 48.2,11.25 Z M64.375,8.525 L64.375,12.05 C63.3249948,12.05 62.4916698,12.3208306 61.875,12.8625 C61.2583303,13.4041694 60.95,14.1249955 60.95,15.025 L60.95,21.575 L57.3,21.575 L57.3,8.65 L60.825,8.65 L60.825,10.125 C61.5083367,9.058328 62.6916582,8.525 64.375,8.525 Z" fill="#000000"></path>
    </g>
</svg>