<svg width="24" height="24" viewBox="0 0 24 24" fill="none" xmlns="http://www.w3.org/2000/svg">
<path d="M5.25 7.875C5.25 7.25368 5.75368 6.75 6.375 6.75H19.5C20.1213 6.75 20.625 7.25368 20.625 7.875V16.125C20.625 16.7463 20.1213 17.25 19.5 17.25H6.375C5.75368 17.25 5.25 16.7463 5.25 16.125V7.875Z" fill="white"/>
<path fill-rule="evenodd" clip-rule="evenodd" d="M6.375 6H19.5C20.5355 6 21.375 6.83947 21.375 7.875V16.125C21.375 17.1605 20.5355 18 19.5 18H6.375C5.33947 18 4.5 17.1605 4.5 16.125V7.875C4.5 6.83947 5.33947 6 6.375 6ZM6.375 6.75C5.75368 6.75 5.25 7.25368 5.25 7.875V16.125C5.25 16.7463 5.75368 17.25 6.375 17.25H19.5C20.1213 17.25 20.625 16.7463 20.625 16.125V7.875C20.625 7.25368 20.1213 6.75 19.5 6.75H6.375Z" fill="white"/>
<path d="M5.25 7.875C5.25 7.25368 5.75368 6.75 6.375 6.75H19.5C20.1213 6.75 20.625 7.25368 20.625 7.875V16.125C20.625 16.7463 20.1213 17.25 19.5 17.25H6.375C5.75368 17.25 5.25 16.7463 5.25 16.125V7.875Z" fill="white"/>
<path fill-rule="evenodd" clip-rule="evenodd" d="M19.5 7.3125H6.375C6.06434 7.3125 5.8125 7.56434 5.8125 7.875V16.125C5.8125 16.4357 6.06434 16.6875 6.375 16.6875H19.5C19.8107 16.6875 20.0625 16.4357 20.0625 16.125V7.875C20.0625 7.56434 19.8107 7.3125 19.5 7.3125ZM6.375 6.75C5.75368 6.75 5.25 7.25368 5.25 7.875V16.125C5.25 16.7463 5.75368 17.25 6.375 17.25H19.5C20.1213 17.25 20.625 16.7463 20.625 16.125V7.875C20.625 7.25368 20.1213 6.75 19.5 6.75H6.375Z" fill="#1566DC"/>
<path d="M14.8125 12L20.0625 7.6875L20.25 15.5625L20.0625 16.6875L14.8125 12Z" fill="#DEECFF"/>
<path fill-rule="evenodd" clip-rule="evenodd" d="M11.25 12.375L5.99998 16.875L5.63391 16.4479L10.8839 11.9479L11.25 12.375Z" fill="#1566DC"/>
<path fill-rule="evenodd" clip-rule="evenodd" d="M14.625 12.375L19.875 16.875L20.2411 16.4479L14.9911 11.9479L14.625 12.375Z" fill="#1566DC"/>
<path fill-rule="evenodd" clip-rule="evenodd" d="M11.7893 12.8968L5.44336 7.5272L5.8067 7.0978L12.1526 12.4674C12.6062 12.8512 13.2704 12.852 13.7249 12.4693L19.8814 7.28487L20.2437 7.71513L14.0872 12.8995C13.423 13.4589 12.4522 13.4577 11.7893 12.8968Z" fill="#1566DC"/>
<path fill-rule="evenodd" clip-rule="evenodd" d="M19.5 7.3125H6.375C6.06434 7.3125 5.8125 7.56434 5.8125 7.875V16.125C5.8125 16.4357 6.06434 16.6875 6.375 16.6875H19.5C19.8107 16.6875 20.0625 16.4357 20.0625 16.125V7.875C20.0625 7.56434 19.8107 7.3125 19.5 7.3125ZM6.375 6.75C5.75368 6.75 5.25 7.25368 5.25 7.875V16.125C5.25 16.7463 5.75368 17.25 6.375 17.25H19.5C20.1213 17.25 20.625 16.7463 20.625 16.125V7.875C20.625 7.25368 20.1213 6.75 19.5 6.75H6.375Z" fill="#1566DC"/>
<path d="M3.375 11.1562C3.375 11.0009 3.50092 10.875 3.65625 10.875H6.46875C6.62408 10.875 6.75 11.0009 6.75 11.1562C6.75 11.3116 6.62408 11.4375 6.46875 11.4375H3.65625C3.50092 11.4375 3.375 11.3116 3.375 11.1562Z" fill="#B8D7FF"/>
<path fill-rule="evenodd" clip-rule="evenodd" d="M3.65625 10.3125H6.46875C6.93474 10.3125 7.3125 10.6903 7.3125 11.1562C7.3125 11.6222 6.93474 12 6.46875 12H3.65625C3.19026 12 2.8125 11.6222 2.8125 11.1562C2.8125 10.6903 3.19026 10.3125 3.65625 10.3125ZM3.65625 10.875C3.50092 10.875 3.375 11.0009 3.375 11.1562C3.375 11.3116 3.50092 11.4375 3.65625 11.4375H6.46875C6.62408 11.4375 6.75 11.3116 6.75 11.1562C6.75 11.0009 6.62408 10.875 6.46875 10.875H3.65625Z" fill="white"/>
<path d="M2.625 13.4062C2.625 13.2509 2.75092 13.125 2.90625 13.125H6.46875C6.62408 13.125 6.75 13.2509 6.75 13.4062C6.75 13.5616 6.62408 13.6875 6.46875 13.6875H2.90625C2.75092 13.6875 2.625 13.5616 2.625 13.4062Z" fill="#B8D7FF"/>
<path fill-rule="evenodd" clip-rule="evenodd" d="M2.90625 12.5625H6.46875C6.93474 12.5625 7.3125 12.9403 7.3125 13.4062C7.3125 13.8722 6.93474 14.25 6.46875 14.25H2.90625C2.44026 14.25 2.0625 13.8722 2.0625 13.4062C2.0625 12.9403 2.44026 12.5625 2.90625 12.5625ZM2.90625 13.125C2.75092 13.125 2.625 13.2509 2.625 13.4062C2.625 13.5616 2.75092 13.6875 2.90625 13.6875H6.46875C6.62408 13.6875 6.75 13.5616 6.75 13.4062C6.75 13.2509 6.62408 13.125 6.46875 13.125H2.90625Z" fill="white"/>
<path d="M4.875 12H6V12.75H4.875V12Z" fill="white"/>
</svg>
