<svg width="24" height="24" viewBox="0 0 24 24" fill="none" xmlns="http://www.w3.org/2000/svg">
<g clip-path="url(#clip0_656_8483)">
<path d="M12.7275 20.9062C12.0675 20.9062 11.5275 20.385 11.5275 19.7475V19.1437C11.5275 18.5062 12.0638 17.985 12.7275 17.985H15.5288C15.7763 17.985 16.0163 18.06 16.2188 18.1987C16.6575 17.8725 17.0175 17.5388 17.295 17.1975C17.5575 16.875 17.8313 16.4438 18.1088 15.9188C17.6963 15.6825 17.4263 15.195 17.4263 14.6475V11.025C17.4263 10.305 17.8913 9.70875 18.495 9.615C18.1013 6.66 15.3563 4.37625 12.1425 4.37625H12.1125H12.0788C10.47 4.39125 8.93629 4.965 7.75879 6C6.66004 6.9675 5.96254 8.25375 5.78629 9.645C6.32629 9.79875 6.72379 10.3612 6.72379 11.025V14.6475C6.72379 15.4312 6.16879 16.0687 5.49004 16.0687H4.98004C4.01629 16.0687 3.23254 15.1387 3.23254 13.995V11.6775C3.23254 10.7025 3.80629 9.87375 4.59379 9.66375C4.76254 8.0475 5.51629 6.525 6.73504 5.3625C7.97629 4.1625 9.64129 3.42 11.415 3.2625L11.4525 3.255C11.6925 3.2325 11.9138 3.22875 12.1425 3.225C12.3413 3.225 12.54 3.2325 12.735 3.2475L12.9038 3.25875C16.4738 3.5925 19.3613 6.34875 19.6913 9.6975C20.4113 9.96375 20.9175 10.7662 20.9175 11.6737V13.9912C20.9175 15.03 20.265 15.9037 19.4063 16.0425C19.0425 16.7475 18.6075 17.4375 18.2288 17.9025C17.8425 18.3788 17.3363 18.84 16.725 19.2637V19.7475C16.725 20.385 16.1888 20.9062 15.525 20.9062H12.7238H12.7275ZM12.7275 19.0912C12.6713 19.0912 12.6338 19.125 12.6338 19.1437V19.7475C12.6338 19.7475 12.6675 19.8 12.7275 19.8H15.5288C15.585 19.8 15.6225 19.7662 15.6225 19.7475V19.1437C15.6225 19.1437 15.5888 19.0912 15.5288 19.0912H12.7275V19.0912ZM18.66 10.7062C18.6225 10.7175 18.5288 10.8375 18.5288 11.0212V14.6437C18.5288 14.8312 18.6225 14.9512 18.66 14.9587H19.17C19.5188 14.9587 19.8113 14.5162 19.8113 13.9912V11.6737C19.8113 11.1487 19.5188 10.7062 19.17 10.7062H18.66ZM4.97254 10.7062C4.62379 10.7062 4.33129 11.1487 4.33129 11.6737V13.9912C4.33129 14.5162 4.62379 14.9587 4.97254 14.9587H5.48254C5.52004 14.9512 5.61004 14.8275 5.61004 14.6437V11.0212C5.61004 10.8337 5.51629 10.7137 5.47879 10.7062H4.96879H4.97254Z" fill="#1566DC"/>
<path d="M12.1425 3.45C12.3337 3.45 12.525 3.4575 12.7162 3.4725L12.885 3.48375C16.4213 3.81375 19.23 6.53625 19.4775 9.87C20.1825 10.0462 20.6887 10.8 20.6887 11.6775V13.995C20.6887 14.9737 20.0625 15.7762 19.2562 15.8362C18.885 16.5675 18.435 17.2837 18.0488 17.7637C17.655 18.2512 17.1338 18.7162 16.4963 19.1512V19.7512C16.4963 20.265 16.0575 20.685 15.5212 20.685H12.72C12.1838 20.685 11.745 20.265 11.745 19.7512V19.1475C11.745 18.6337 12.1838 18.2137 12.72 18.2137H15.5212C15.7762 18.2137 16.02 18.3112 16.2037 18.4837C16.7212 18.1162 17.145 17.7337 17.46 17.34C17.7638 16.9612 18.0862 16.4475 18.4125 15.81C17.9625 15.6787 17.6437 15.2025 17.6437 14.6475V11.025C17.6437 10.365 18.0975 9.82875 18.6525 9.82875H18.735C18.4462 6.64125 15.555 4.15125 12.1313 4.15125C12.1238 4.15125 12.1163 4.15125 12.1088 4.15125H12.0938C12.0938 4.15125 12.0788 4.15125 12.0713 4.15125C10.4063 4.16625 8.82 4.7625 7.605 5.83125C6.405 6.885 5.67375 8.3025 5.535 9.8325C6.0675 9.86625 6.495 10.3875 6.495 11.0287V14.6512C6.495 15.3112 6.04125 15.8475 5.48625 15.8475H4.97625C4.13625 15.8475 3.45375 15.0187 3.45375 13.9987V11.6812C3.45375 10.74 4.0275 9.96375 4.8 9.85125C4.9275 8.2275 5.66625 6.69 6.88875 5.52375C8.10375 4.36125 9.72 3.64125 11.4413 3.4875L11.4937 3.48C11.7112 3.46125 11.925 3.4575 12.15 3.45375M18.6638 15.1912H19.1738C19.65 15.1912 20.04 14.655 20.04 13.9987V11.6812C20.04 11.0212 19.65 10.4887 19.1738 10.4887H18.6638C18.4763 10.4887 18.3113 10.74 18.3113 11.0287V14.6512C18.3113 14.94 18.4763 15.1912 18.6638 15.1912ZM4.97625 15.1912H5.48625C5.67375 15.1912 5.83875 14.94 5.83875 14.6512V11.0287C5.83875 10.74 5.67375 10.4887 5.48625 10.4887H4.97625C4.5 10.4887 4.11 11.025 4.11 11.6812V13.9987C4.11 14.6587 4.5 15.1912 4.97625 15.1912M12.7313 20.0287H15.5325C15.7087 20.0287 15.8513 19.905 15.8513 19.7512V19.1475C15.8513 18.9937 15.7087 18.87 15.5325 18.87H12.7313C12.555 18.87 12.4125 18.9937 12.4125 19.1475V19.7512C12.4125 19.905 12.555 20.0287 12.7313 20.0287ZM12.1425 3H12.1388C11.9325 3 11.6925 3.0075 11.4525 3.02625H11.4337L11.415 3.03L11.3775 3.0375C9.5625 3.2025 7.85625 3.9675 6.57375 5.19375C5.355 6.35625 4.58625 7.87125 4.38 9.4875C3.5625 9.78 3 10.6425 3 11.6737V13.9912C3 15.2587 3.885 16.29 4.9725 16.29H5.4825C6.28875 16.29 6.94125 15.5512 6.94125 14.6437V11.0212C6.94125 10.3312 6.56625 9.73875 6.02625 9.49125C6.2325 8.22 6.885 7.05 7.8975 6.16125C9.03 5.16375 10.515 4.60875 12.0713 4.59375C12.0713 4.59375 12.0938 4.59375 12.1013 4.59375C12.1088 4.59375 12.12 4.59375 12.1313 4.59375C15.165 4.59375 17.76 6.69 18.2325 9.4425C17.6325 9.645 17.1937 10.2787 17.1937 11.0212V14.6437C17.1937 15.1875 17.43 15.6825 17.8088 15.9862C17.5688 16.4175 17.3362 16.7737 17.115 17.0512C16.875 17.3475 16.5713 17.64 16.2 17.925C15.9938 17.8162 15.765 17.76 15.525 17.76H12.7238C11.94 17.76 11.2987 18.3787 11.2987 19.1437V19.7475C11.2987 20.5087 11.9363 21.1312 12.7238 21.1312H15.525C16.3088 21.1312 16.95 20.5125 16.95 19.7475V19.38C17.535 18.96 18.0225 18.51 18.4012 18.0412C18.7687 17.5875 19.1925 16.9275 19.5525 16.2412C20.46 16.0312 21.1387 15.0975 21.1387 13.9912V11.6737C21.1387 10.71 20.6438 9.88125 19.8975 9.54C19.4963 6.14625 16.5487 3.375 12.9262 3.03375L12.7462 3.0225C12.5437 3.0075 12.3412 3 12.1425 3Z" fill="white"/>
<path d="M12.1575 15.2175C14.1955 15.2175 15.8475 13.5654 15.8475 11.5275C15.8475 9.48957 14.1955 7.8375 12.1575 7.8375C10.1196 7.8375 8.46753 9.48957 8.46753 11.5275C8.46753 13.5654 10.1196 15.2175 12.1575 15.2175Z" fill="white"/>
<path d="M12.1575 15.465C9.98622 15.465 8.21997 13.6987 8.21997 11.5275C8.21997 9.35625 9.98622 7.59 12.1575 7.59C14.3287 7.59 16.095 9.35625 16.095 11.5275C16.095 13.6987 14.3287 15.465 12.1575 15.465ZM12.1575 8.08125C10.2562 8.08125 8.71122 9.62625 8.71122 11.5275C8.71122 13.4287 10.2562 14.9737 12.1575 14.9737C14.0587 14.9737 15.6037 13.4287 15.6037 11.5275C15.6037 9.62625 14.0587 8.08125 12.1575 8.08125V8.08125Z" fill="#B8D7FF"/>
<path d="M11.9775 9.13125H11.88C11.7825 9.135 11.6887 9.14625 11.5912 9.165C11.2837 9.2175 10.995 9.36 10.77 9.5775C10.6762 9.6675 10.6237 9.79125 10.62 9.91875C10.6162 10.0462 10.6612 10.1737 10.7437 10.2712C10.8187 10.3612 10.995 10.4737 11.31 10.2525L11.3625 10.2112C11.55 10.0687 11.775 9.99375 12.0075 9.99375H12.1275C12.2475 9.9975 12.3637 10.0387 12.4612 10.1062C12.5587 10.1775 12.6337 10.275 12.675 10.3875C12.7087 10.4962 12.7087 10.6125 12.675 10.7212C12.6375 10.83 12.57 10.9237 12.4762 10.9912C12.42 11.04 12.36 11.085 12.3 11.1262L12.2325 11.175C12.0225 11.3175 11.8575 11.5238 11.7675 11.7638C11.6775 12.0038 11.6625 12.2625 11.7262 12.51C11.7825 12.7125 11.8687 12.8213 11.9775 12.8213C12.0862 12.8213 12.1575 12.72 12.21 12.525C12.2812 12.2512 12.4387 12.0075 12.6562 11.8275C12.7462 11.7563 12.8362 11.685 12.93 11.6212C13.02 11.5575 13.095 11.5012 13.1812 11.4412C13.4062 11.2687 13.5637 11.0212 13.6162 10.74C13.6725 10.4625 13.62 10.17 13.4737 9.92625C13.1775 9.42 12.7125 9.16875 11.9775 9.1275V9.13125Z" fill="#1566DC"/>
<path d="M11.9813 13.2075C11.8688 13.2 11.7563 13.2375 11.67 13.3125C11.5988 13.3875 11.5575 13.4887 11.5613 13.5937C11.5613 13.7062 11.6025 13.8187 11.6813 13.9012C11.76 13.9762 11.865 14.0175 11.9738 14.0137C12.09 14.0175 12.2025 13.9762 12.285 13.8937C12.3638 13.815 12.405 13.7062 12.4013 13.5937C12.4088 13.485 12.3638 13.3762 12.285 13.3012C12.2025 13.2262 12.0938 13.1887 11.985 13.2037L11.9813 13.2075Z" fill="#1566DC"/>
</g>
<defs>
<clipPath id="clip0_656_8483">
<rect width="18.1388" height="18.1312" fill="white" transform="translate(3 3)"/>
</clipPath>
</defs>
</svg>
