<svg width="24" height="24" viewBox="0 0 24 24" fill="none" xmlns="http://www.w3.org/2000/svg">
<path fill-rule="evenodd" clip-rule="evenodd" d="M12.0186 21.3729C11.8582 21.4961 11.5773 21.4551 11.4569 21.2907L6 13.9773C5.07721 12.7448 4.55556 11.2657 4.55556 9.70451C4.55556 5.76026 7.80555 2.55556 11.7778 2.55556C15.75 2.55556 19.0001 5.76026 19.0001 9.70451C19.0001 11.2657 18.4784 12.7448 17.5557 13.9773L12.0988 21.2907L12.0186 21.3729ZM5.55528 14.3103C5.55515 14.3101 5.55503 14.31 5.55491 14.3098C4.5642 12.9864 4 11.3918 4 9.70451C4 5.44749 7.5047 2 11.7778 2C16.0508 2 19.5557 5.44748 19.5557 9.70451C19.5557 11.3919 18.9913 12.9867 18.0004 14.3103L12.522 21.6525L12.3884 21.7893L12.3571 21.8134C12.1316 21.9866 11.8602 22.0212 11.6424 21.9894C11.425 21.9576 11.1773 21.8476 11.0105 21.6215L5.55528 14.3103Z" fill="white"/>
<path d="M11.7777 2.55556C7.80553 2.55556 4.55554 5.76026 4.55554 9.70451C4.55554 11.2657 5.07719 12.7448 5.99998 13.9773L11.4569 21.2907C11.5772 21.4551 11.8581 21.4961 12.0185 21.3729L12.0988 21.2907L17.5556 13.9773C18.4784 12.7448 19.0001 11.2657 19.0001 9.70451C19.0001 5.76026 15.75 2.55556 11.7777 2.55556Z" fill="#DEECFF"/>
<path fill-rule="evenodd" clip-rule="evenodd" d="M6.4447 13.6444L6.44525 13.6451L11.7778 20.7919L17.1109 13.6444C17.9656 12.5028 18.4445 11.1394 18.4445 9.70451C18.4445 6.07305 15.4491 3.11112 11.7777 3.11112C8.10638 3.11112 5.1111 6.07303 5.1111 9.70451C5.1111 11.1395 5.59006 12.5029 6.4447 13.6444ZM12.0185 21.3729C11.8581 21.4961 11.5772 21.4551 11.4569 21.2907L5.99998 13.9773C5.07719 12.7448 4.55554 11.2657 4.55554 9.70451C4.55554 5.76026 7.80553 2.55556 11.7777 2.55556C15.75 2.55556 19.0001 5.76026 19.0001 9.70451C19.0001 11.2657 18.4784 12.7448 17.5556 13.9773L12.0988 21.2907L12.0185 21.3729Z" fill="#1566DC"/>
<path d="M16.4074 9.77783C16.4074 12.3347 14.3346 14.4075 11.7777 14.4075C9.22084 14.4075 7.14807 12.3347 7.14807 9.77783C7.14807 7.22094 9.22084 5.14817 11.7777 5.14817C14.3346 5.14817 16.4074 7.22094 16.4074 9.77783Z" fill="white"/>
<mask id="mask0_1180_9937" style="mask-type:alpha" maskUnits="userSpaceOnUse" x="7" y="5" width="10" height="10">
<path d="M16.4074 9.77783C16.4074 12.3347 14.3346 14.4075 11.7777 14.4075C9.22084 14.4075 7.14807 12.3347 7.14807 9.77783C7.14807 7.22094 9.22084 5.14817 11.7777 5.14817C14.3346 5.14817 16.4074 7.22094 16.4074 9.77783Z" fill="#B8D7FF"/>
</mask>
<g mask="url(#mask0_1180_9937)">
<path d="M10.6667 9.03709V7.18522L9.37036 8.66671L9.74073 10.5186L11.2222 11.2593L11.037 14.7779L13.0741 14.5927L12.8889 11.2593L14.5556 9.77783L14.1852 8.48153L13.2593 7.18522L13.0741 9.03709L11.7778 9.96302L10.6667 9.03709Z" fill="#DEECFF"/>
<path d="M13.1926 7.00487C13.1223 6.95302 13.026 6.94561 12.9445 6.98265C12.863 7.02339 12.8112 7.10117 12.8037 7.19376L12.7 8.98266L11.7926 9.71971L10.9852 8.91229V7.11599C10.9852 7.02339 10.9371 6.94191 10.8556 6.89747C10.7741 6.85302 10.6778 6.86043 10.6 6.91228C9.61114 7.59377 9.04447 8.43451 9.00002 9.27896C8.96669 9.89008 9.22965 10.4827 9.70003 10.8716C10.0222 11.1345 10.3852 11.3271 10.7815 11.4456L10.7445 16.3346C10.7334 16.7568 10.8963 17.1753 11.1926 17.479C11.4 17.6864 11.6815 17.8012 11.9704 17.8012C11.9778 17.8012 11.9852 17.8012 11.9926 17.8012C12.2926 17.8012 12.5852 17.6753 12.7963 17.4605L12.8334 17.4235C13.1112 17.1123 13.2519 16.6938 13.2149 16.279L12.9741 11.4975C13.4186 11.3864 13.8223 11.1568 14.1445 10.8345C14.2667 10.7123 14.3778 10.579 14.4704 10.4382C15.3704 9.04192 14.0297 7.57895 13.1926 7.00117V7.00487ZM11.2704 11.579C11.3482 11.5938 11.4297 11.6049 11.526 11.616L11.5926 11.6234C11.7149 11.6382 11.8074 11.6419 11.8778 11.6382C11.9778 11.6419 12.0778 11.6419 12.1778 11.6382H12.2112C12.2889 11.6308 12.3704 11.6234 12.4556 11.6049L12.7112 16.3235C12.7408 16.6049 12.6519 16.8864 12.4667 17.0975C12.3482 17.2346 12.1741 17.3123 11.9926 17.3198C11.9815 17.3198 11.9704 17.3198 11.9593 17.3198C11.8 17.3198 11.6482 17.2568 11.5371 17.1457C11.3371 16.9346 11.2297 16.6494 11.2371 16.3568L11.2667 11.5827L11.2704 11.579ZM10.5667 9.19007L11.6074 10.2308C11.6963 10.3234 11.8408 10.3308 11.9408 10.2493L13.0963 9.30859L13.1075 9.30119C13.1593 9.25674 13.1926 9.19378 13.1963 9.12341L13.2778 7.70858C13.7704 8.14933 14.6964 9.17155 14.0482 10.1679C13.726 10.6456 13.2149 10.9753 12.6445 11.0679C12.1334 11.1827 11.5963 11.1679 11.0926 11.0308C10.7 10.9308 10.3408 10.753 10.0222 10.4975C9.66669 10.2086 9.47039 9.76045 9.49632 9.30489C9.55558 8.73822 9.82225 8.21599 10.2445 7.83451C10.3223 7.75673 10.4 7.67895 10.4926 7.60117V9.01229C10.4926 9.07896 10.5185 9.14193 10.563 9.18637L10.5667 9.19007Z" fill="#1566DC"/>
</g>
<path fill-rule="evenodd" clip-rule="evenodd" d="M11.7779 14.2223C14.2325 14.2223 16.2223 12.2324 16.2223 9.77783C16.2223 7.32321 14.2325 5.33336 11.7779 5.33336C9.32325 5.33336 7.33339 7.32321 7.33339 9.77783C7.33339 12.2324 9.32325 14.2223 11.7779 14.2223ZM11.7779 14.7779C14.5393 14.7779 16.7779 12.5393 16.7779 9.77783C16.7779 7.01639 14.5393 4.7778 11.7779 4.7778C9.01642 4.7778 6.77783 7.01639 6.77783 9.77783C6.77783 12.5393 9.01642 14.7779 11.7779 14.7779Z" fill="#AFCDF9"/>
</svg>
