<svg width="24" height="24" viewBox="0 0 24 24" fill="none" xmlns="http://www.w3.org/2000/svg">
<path d="M4.875 5.625C4.875 4.79657 5.54657 4.125 6.375 4.125H16.125C16.9534 4.125 17.625 4.79657 17.625 5.625V19.125C17.625 19.9534 16.9534 20.625 16.125 20.625H6.375C5.54657 20.625 4.875 19.9534 4.875 19.125V5.625Z" fill="white"/>
<path fill-rule="evenodd" clip-rule="evenodd" d="M6.375 3.5625H16.125C17.2641 3.5625 18.1875 4.48591 18.1875 5.625V19.125C18.1875 20.2641 17.2641 21.1875 16.125 21.1875H6.375C5.23591 21.1875 4.3125 20.2641 4.3125 19.125V5.625C4.3125 4.48591 5.23591 3.5625 6.375 3.5625ZM6.375 4.125C5.54657 4.125 4.875 4.79657 4.875 5.625V19.125C4.875 19.9534 5.54657 20.625 6.375 20.625H16.125C16.9534 20.625 17.625 19.9534 17.625 19.125V5.625C17.625 4.79657 16.9534 4.125 16.125 4.125H6.375Z" fill="white"/>
<path d="M4.875 5.625C4.875 4.79657 5.54657 4.125 6.375 4.125H16.125C16.9534 4.125 17.625 4.79657 17.625 5.625V7.125H4.875V5.625Z" fill="#B8D7FF"/>
<path d="M7.875 7.125H5.25V19.125C5.25 19.9534 5.92157 20.625 6.75 20.625H7.875V7.125Z" fill="#DEECFF"/>
<path fill-rule="evenodd" clip-rule="evenodd" d="M16.125 4.6875H6.375C5.85723 4.6875 5.4375 5.10723 5.4375 5.625V19.125C5.4375 19.6428 5.85723 20.0625 6.375 20.0625H16.125C16.6428 20.0625 17.0625 19.6428 17.0625 19.125V5.625C17.0625 5.10723 16.6428 4.6875 16.125 4.6875ZM6.375 4.125C5.54657 4.125 4.875 4.79657 4.875 5.625V19.125C4.875 19.9534 5.54657 20.625 6.375 20.625H16.125C16.9534 20.625 17.625 19.9534 17.625 19.125V5.625C17.625 4.79657 16.9534 4.125 16.125 4.125H6.375Z" fill="#1566DC"/>
<path d="M21 13.5C21 15.5711 19.3211 17.25 17.25 17.25C15.1789 17.25 13.5 15.5711 13.5 13.5C13.5 11.4289 15.1789 9.75 17.25 9.75C19.3211 9.75 21 11.4289 21 13.5Z" fill="white"/>
<path fill-rule="evenodd" clip-rule="evenodd" d="M17.25 16.6875C19.0104 16.6875 20.4375 15.2604 20.4375 13.5C20.4375 11.7396 19.0104 10.3125 17.25 10.3125C15.4896 10.3125 14.0625 11.7396 14.0625 13.5C14.0625 15.2604 15.4896 16.6875 17.25 16.6875ZM17.25 17.25C19.3211 17.25 21 15.5711 21 13.5C21 11.4289 19.3211 9.75 17.25 9.75C15.1789 9.75 13.5 11.4289 13.5 13.5C13.5 15.5711 15.1789 17.25 17.25 17.25Z" fill="#1566DC"/>
<path d="M13.875 12.75H17.8125C18.1232 12.75 18.375 13.0018 18.375 13.3125C18.375 13.6232 18.1232 13.875 17.8125 13.875H13.875V12.75Z" fill="#B8D7FF"/>
<path fill-rule="evenodd" clip-rule="evenodd" d="M21.5625 13.5C21.5625 15.8817 19.6317 17.8125 17.25 17.8125C14.8683 17.8125 12.9375 15.8817 12.9375 13.5C12.9375 11.1183 14.8683 9.1875 17.25 9.1875C19.6317 9.1875 21.5625 11.1183 21.5625 13.5ZM17.25 17.25C19.3211 17.25 21 15.5711 21 13.5C21 11.4289 19.3211 9.75 17.25 9.75C15.1789 9.75 13.5 11.4289 13.5 13.5C13.5 15.5711 15.1789 17.25 17.25 17.25Z" fill="white"/>
<path fill-rule="evenodd" clip-rule="evenodd" d="M17.25 16.5C18.9069 16.5 20.25 15.1569 20.25 13.5C20.25 11.8431 18.9069 10.5 17.25 10.5C15.5931 10.5 14.25 11.8431 14.25 13.5C14.25 15.1569 15.5931 16.5 17.25 16.5ZM17.25 17.25C19.3211 17.25 21 15.5711 21 13.5C21 11.4289 19.3211 9.75 17.25 9.75C15.1789 9.75 13.5 11.4289 13.5 13.5C13.5 15.5711 15.1789 17.25 17.25 17.25Z" fill="#1566DC"/>
<path fill-rule="evenodd" clip-rule="evenodd" d="M19.7651 16.2348C19.9116 16.0884 20.149 16.0884 20.2954 16.2348L21.6401 17.5795C21.7866 17.726 21.7866 17.9634 21.6401 18.1098C21.4937 18.2563 21.2562 18.2563 21.1098 18.1098L19.7651 16.7652C19.6187 16.6187 19.6187 16.3813 19.7651 16.2348Z" fill="#1566DC"/>
<path fill-rule="evenodd" clip-rule="evenodd" d="M17.625 7.125L4.875 7.125L4.875 6.5625L17.625 6.5625L17.625 7.125Z" fill="#1566DC"/>
<path fill-rule="evenodd" clip-rule="evenodd" d="M7.59375 19.125L7.59375 5.625C7.59375 5.46967 7.71967 5.34375 7.875 5.34375C8.03033 5.34375 8.15625 5.46967 8.15625 5.625L8.15625 19.125C8.15625 19.2803 8.03033 19.4063 7.875 19.4063C7.71967 19.4063 7.59375 19.2803 7.59375 19.125Z" fill="#1566DC"/>
<path fill-rule="evenodd" clip-rule="evenodd" d="M12.75 13.0312C12.75 13.1866 12.6241 13.3125 12.4688 13.3125H9.65625C9.50092 13.3125 9.375 13.1866 9.375 13.0312C9.375 12.8759 9.50092 12.75 9.65625 12.75H12.4688C12.6241 12.75 12.75 12.8759 12.75 13.0312Z" fill="#1566DC"/>
<path fill-rule="evenodd" clip-rule="evenodd" d="M13.875 10.4062C13.875 10.5616 13.7491 10.6875 13.5938 10.6875H9.65625C9.50092 10.6875 9.375 10.5616 9.375 10.4062C9.375 10.2509 9.50092 10.125 9.65625 10.125H13.5938C13.7491 10.125 13.875 10.2509 13.875 10.4062Z" fill="#1566DC"/>
<path fill-rule="evenodd" clip-rule="evenodd" d="M13.125 15.6562C13.125 15.8116 12.9991 15.9375 12.8438 15.9375H9.65625C9.50092 15.9375 9.375 15.8116 9.375 15.6562C9.375 15.5009 9.50092 15.375 9.65625 15.375H12.8438C12.9991 15.375 13.125 15.5009 13.125 15.6562Z" fill="#1566DC"/>
</svg>
