<svg width="24" height="24" viewBox="0 0 24 24" fill="none" xmlns="http://www.w3.org/2000/svg">
<path d="M12.1888 20.1986C12.0654 20.2336 11.9346 20.2336 11.8112 20.1986C9.94571 19.6689 8.39613 18.5782 7.1625 16.9265C5.8875 15.2188 5.25 13.3114 5.25 11.2044V6.71751C5.25 6.40165 5.44789 6.11965 5.74492 6.01222L11.7449 3.84225C11.9098 3.78264 12.0903 3.78264 12.2551 3.84225L18.2551 6.01222C18.5521 6.11965 18.75 6.40165 18.75 6.71751V11.2044C18.75 13.3114 18.1125 15.2188 16.8375 16.9265C15.6039 18.5782 14.0543 19.6689 12.1888 20.1986Z" fill="white"/>
<path fill-rule="evenodd" clip-rule="evenodd" d="M6.26115 17.5997L6.26104 17.5995C4.84271 15.6998 4.125 13.557 4.125 11.2044V6.71751C4.125 5.92786 4.61973 5.22284 5.36231 4.95428L11.3623 2.78431C11.7744 2.63529 12.2256 2.63529 12.6377 2.78431L18.6377 4.95428C19.3803 5.22285 19.875 5.92786 19.875 6.71751V11.2044C19.875 13.557 19.1573 15.6998 17.739 17.5995L17.7389 17.5997C16.3674 19.4359 14.6146 20.6793 12.496 21.2808C12.1718 21.3729 11.8282 21.3729 11.504 21.2808C9.38536 20.6793 7.63259 19.4359 6.26115 17.5997ZM7.1625 16.9265C5.8875 15.2188 5.25 13.3114 5.25 11.2044V6.71751C5.25 6.40165 5.44789 6.11964 5.74492 6.01222L11.7449 3.84225C11.9098 3.78264 12.0903 3.78264 12.2551 3.84225L18.2551 6.01222C18.5521 6.11965 18.75 6.40165 18.75 6.71751V11.2044C18.75 13.3114 18.1125 15.2188 16.8375 16.9265C15.6039 18.5782 14.0543 19.6689 12.1888 20.1986C12.0654 20.2336 11.9346 20.2336 11.8112 20.1986C9.94571 19.6689 8.39613 18.5782 7.1625 16.9265Z" fill="white"/>
<path d="M12.1888 20.1986C12.0654 20.2336 11.9346 20.2336 11.8112 20.1986C9.94571 19.6689 8.39613 18.5782 7.1625 16.9265C5.8875 15.2188 5.25 13.3114 5.25 11.2044V6.71751C5.25 6.40165 5.44789 6.11965 5.74492 6.01222L11.7449 3.84225C11.9098 3.78264 12.0903 3.78264 12.2551 3.84225L18.2551 6.01222C18.5521 6.11965 18.75 6.40165 18.75 6.71751V11.2044C18.75 13.3114 18.1125 15.2188 16.8375 16.9265C15.6039 18.5782 14.0543 19.6689 12.1888 20.1986Z" fill="white"/>
<path fill-rule="evenodd" clip-rule="evenodd" d="M6.71183 17.2631L6.71177 17.263C5.3651 15.4593 4.6875 13.4342 4.6875 11.2044V6.71751C4.6875 6.16476 5.03381 5.67124 5.55362 5.48325L11.5536 3.31328C11.8421 3.20896 12.1579 3.20896 12.4464 3.31328L18.4464 5.48325C18.9662 5.67125 19.3125 6.16476 19.3125 6.71751V11.2044C19.3125 13.4342 18.6349 15.4593 17.2882 17.263L17.2882 17.2631C15.9856 19.007 14.3345 20.1741 12.3424 20.7397C12.1186 20.8033 11.8814 20.8033 11.6576 20.7397C9.66554 20.1741 8.01436 19.007 6.71183 17.2631ZM11.8112 20.1986C11.9346 20.2336 12.0654 20.2336 12.1888 20.1986C14.0543 19.6689 15.6039 18.5782 16.8375 16.9265C18.1125 15.2188 18.75 13.3114 18.75 11.2044V6.71751C18.75 6.40165 18.5521 6.11965 18.2551 6.01222L12.2551 3.84225C12.0903 3.78264 11.9098 3.78264 11.7449 3.84225L5.74492 6.01222C5.44789 6.11965 5.25 6.40165 5.25 6.71751V11.2044C5.25 13.3114 5.8875 15.2188 7.1625 16.9265C8.39613 18.5782 9.94571 19.6689 11.8112 20.1986Z" fill="white"/>
<path d="M12.2828 20.1713C12.0983 20.2259 11.9017 20.2259 11.7172 20.1713C9.89358 19.632 8.37534 18.5503 7.1625 16.9265C5.8875 15.2188 5.25 13.3114 5.25 11.2044V6.98066C5.25 6.50687 5.54684 6.08386 5.99238 5.92272L11.6174 3.88838C11.8646 3.79896 12.1354 3.79896 12.3826 3.88838L18.0076 5.92272C18.4532 6.08386 18.75 6.50687 18.75 6.98066V11.2044C18.75 13.3114 18.1125 15.2188 16.8375 16.9265C15.6247 18.5503 14.1064 19.632 12.2828 20.1713Z" fill="white"/>
<path d="M12 20.25V4.125L15.4714 5.21208L18.5571 6.48034L18.75 7.56742V12.8216L17.5929 15.9017L15.0857 18.8006L12 20.25Z" fill="#DEECFF"/>
<path fill-rule="evenodd" clip-rule="evenodd" d="M7.61317 16.5899C8.75848 18.1233 10.1774 19.1293 11.8768 19.6319C11.9571 19.6557 12.0429 19.6557 12.1232 19.6319C13.8226 19.1293 15.2415 18.1233 16.3868 16.5899C17.5901 14.9782 18.1875 13.1886 18.1875 11.2044V6.98066C18.1875 6.74376 18.0391 6.53226 17.8163 6.45169L12.1913 4.41735C12.0677 4.37264 11.9323 4.37264 11.8087 4.41735L6.18369 6.45169C5.96092 6.53226 5.8125 6.74377 5.8125 6.98066V11.2044C5.8125 13.1886 6.40988 14.9782 7.61317 16.5899ZM7.1625 16.9265C8.37534 18.5503 9.89358 19.632 11.7172 20.1713C11.9017 20.2259 12.0983 20.2259 12.2828 20.1713C14.1064 19.632 15.6247 18.5503 16.8375 16.9265C18.1125 15.2188 18.75 13.3114 18.75 11.2044V6.98066C18.75 6.50687 18.4532 6.08386 18.0076 5.92272L12.3826 3.88838C12.1354 3.79896 11.8646 3.79896 11.6174 3.88838L5.99238 5.92272C5.54684 6.08386 5.25 6.50687 5.25 6.98066V11.2044C5.25 13.3114 5.8875 15.2188 7.1625 16.9265Z" fill="#1566DC"/>
<path d="M9.53128 12.7415C9.30082 12.5111 9.3296 12.1367 9.5889 11.9352C9.81936 11.7048 10.1939 11.7336 10.3955 11.9928L11.6919 13.4903L15.3794 8.91138C15.8403 8.33543 16.4165 8.70977 15.9555 9.31454L12.2104 14.7574L12.1239 14.8438C11.8646 15.0742 11.5189 15.0454 11.2884 14.7862L9.53113 12.7415L9.53128 12.7415Z" fill="#1566DC"/>
<path fill-rule="evenodd" clip-rule="evenodd" d="M11.2884 14.7862C11.5189 15.0454 11.8646 15.0742 12.1239 14.8438L12.2104 14.7574L15.9556 9.31454C16.4165 8.70977 15.8403 8.33543 15.3794 8.91138L11.6919 13.4903L10.3955 11.9928C10.1939 11.7336 9.81937 11.7048 9.5889 11.9352C9.43862 12.052 9.36577 12.2269 9.37594 12.3981C9.38332 12.5222 9.43431 12.6444 9.53104 12.7412L11.2884 14.7862ZM9.01278 12.5204C8.95894 12.2054 9.07488 11.8708 9.34051 11.6536C9.73448 11.2787 10.3526 11.3369 10.6847 11.7538L11.6815 12.9053L15.0866 8.67706C15.0867 8.6769 15.0869 8.67674 15.087 8.67658C15.3638 8.33108 15.8331 8.09635 16.2229 8.35933C16.4177 8.49074 16.5067 8.70786 16.4996 8.92756C16.4928 9.13672 16.4027 9.34415 16.2597 9.53413L12.4998 14.9983L12.3812 15.1168L12.373 15.1241C12.1732 15.3016 11.9238 15.3913 11.668 15.3726C11.4136 15.354 11.1817 15.2305 11.0082 15.0354L11.0061 15.033L9.25325 12.9935C9.22849 12.9678 9.20559 12.9411 9.18454 12.9136L8.88391 12.5638L9.01278 12.5204Z" fill="white"/>
</svg>
